<svg xmlns="http://www.w3.org/2000/svg" xmlns:xlink="http://www.w3.org/1999/xlink" viewBox="0 0 327.35 353.46"><defs><style>.cls-1{mask:url(#mask);filter:url(#luminosity-noclip-8);}.cls-10,.cls-12,.cls-14,.cls-2,.cls-4,.cls-6,.cls-8{mix-blend-mode:multiply;}.cls-2{fill:url(#Áåçûìÿííûé_ãðàäèåíò_2);}.cls-3{mask:url(#mask-2);filter:url(#luminosity-noclip-13);}.cls-4{fill:url(#Áåçûìÿííûé_ãðàäèåíò_2-2);}.cls-5{mask:url(#mask-3);filter:url(#luminosity-noclip-14);}.cls-6{fill:url(#Áåçûìÿííûé_ãðàäèåíò_2-3);}.cls-7{mask:url(#mask-4);filter:url(#luminosity-noclip-9);}.cls-8{fill:url(#Áåçûìÿííûé_ãðàäèåíò_2-4);}.cls-9{mask:url(#mask-5);filter:url(#luminosity-noclip-10);}.cls-10{fill:url(#Áåçûìÿííûé_ãðàäèåíò_2-5);}.cls-11{mask:url(#mask-6);filter:url(#luminosity-noclip-11);}.cls-12{fill:url(#Áåçûìÿííûé_ãðàäèåíò_2-6);}.cls-13{mask:url(#mask-7);filter:url(#luminosity-noclip-12);}.cls-14{fill:url(#Áåçûìÿííûé_ãðàäèåíò_4);}.cls-15{mask:url(#mask-8);}.cls-16{opacity:0.31;fill:url(#Áåçûìÿííûé_ãðàäèåíò_92);}.cls-17,.cls-27,.cls-41{fill:#249cd4;}.cls-18{fill:#fff;}.cls-19{mask:url(#mask-9);}.cls-20{fill:url(#Áåçûìÿííûé_ãðàäèåíò_92-2);}.cls-21{fill:#1b3a95;}.cls-22{fill:#004345;}.cls-23{fill:#2b5df0;}.cls-24{fill:#2754d9;}.cls-25{fill:url(#Áåçûìÿííûé_ãðàäèåíò_11);}.cls-26{fill:url(#Áåçûìÿííûé_ãðàäèåíò_11-2);}.cls-27{opacity:0.32;}.cls-28{fill:url(#Áåçûìÿííûé_ãðàäèåíò_11-3);}.cls-29{fill:#ffd400;}.cls-30{mask:url(#mask-10);}.cls-31,.cls-33,.cls-60,.cls-62{opacity:0.66;}.cls-31{fill:url(#Áåçûìÿííûé_ãðàäèåíò_92-3);}.cls-32{mask:url(#mask-11);}.cls-33{fill:url(#Áåçûìÿííûé_ãðàäèåíò_92-4);}.cls-34{fill:url(#Áåçûìÿííûé_ãðàäèåíò_11-4);}.cls-35{fill:url(#Áåçûìÿííûé_ãðàäèåíò_11-5);}.cls-36{fill:url(#Áåçûìÿííûé_ãðàäèåíò_609);}.cls-37{mask:url(#mask-12);}.cls-38{fill:url(#Áåçûìÿííûé_ãðàäèåíò_614);}.cls-39{fill:url(#Áåçûìÿííûé_ãðàäèåíò_11-6);}.cls-40{fill:url(#Áåçûìÿííûé_ãðàäèåíò_9);}.cls-41{opacity:0.58;}.cls-42{fill:url(#Áåçûìÿííûé_ãðàäèåíò_8);}.cls-43{fill:url(#Áåçûìÿííûé_ãðàäèåíò_6);}.cls-44{fill:#ffb600;}.cls-45{fill:#2249bd;}.cls-46{fill:#020023;}.cls-47{fill:url(#Áåçûìÿííûé_ãðàäèåíò_136);}.cls-48{fill:#ff9100;}.cls-49{fill:#ffb68e;}.cls-50{fill:#19437f;}.cls-51{fill:url(#Áåçûìÿííûé_ãðàäèåíò_70);}.cls-52{fill:url(#Áåçûìÿííûé_ãðàäèåíò_6-2);}.cls-53{fill:url(#Áåçûìÿííûé_ãðàäèåíò_6-3);}.cls-54{fill:url(#Áåçûìÿííûé_ãðàäèåíò_70-2);}.cls-55{fill:#172755;}.cls-56{fill:url(#Áåçûìÿííûé_ãðàäèåíò_136-2);}.cls-57{fill:url(#Áåçûìÿííûé_ãðàäèåíò_136-3);}.cls-58{fill:#ef8b59;}.cls-59{mask:url(#mask-13);}.cls-60{fill:url(#Áåçûìÿííûé_ãðàäèåíò_92-5);}.cls-61{mask:url(#mask-14);}.cls-62{fill:url(#Áåçûìÿííûé_ãðàäèåíò_92-6);}.cls-63{fill:url(#Áåçûìÿííûé_ãðàäèåíò_6-4);}.cls-64{fill:#050023;}.cls-65{fill:#00b7f4;}.cls-66{fill:#f0f0f0;}.cls-67{filter:url(#luminosity-noclip-7);}.cls-68{filter:url(#luminosity-noclip-6);}.cls-69{filter:url(#luminosity-noclip-5);}.cls-70{filter:url(#luminosity-noclip-4);}.cls-71{filter:url(#luminosity-noclip-3);}.cls-72{filter:url(#luminosity-noclip-2);}.cls-73{filter:url(#luminosity-noclip);}</style><filter id="luminosity-noclip" x="132.8" y="-8353.87" width="24.12" height="32766" filterUnits="userSpaceOnUse" color-interpolation-filters="sRGB"><feFlood flood-color="#fff" result="bg"/><feBlend in="SourceGraphic" in2="bg"/></filter><mask id="mask" x="132.8" y="-8353.87" width="24.12" height="32766" maskUnits="userSpaceOnUse"><g class="cls-73"/></mask><linearGradient id="Áåçûìÿííûé_ãðàäèåíò_2" x1="148.85" y1="28.64" x2="173.19" y2="28.64" gradientTransform="translate(-17.97 10.26) rotate(-3.88)" gradientUnits="userSpaceOnUse"><stop offset="0.06" stop-color="#fff"/><stop offset="0.43" stop-color="#a3a3a3"/><stop offset="1"/></linearGradient><filter id="luminosity-noclip-2" x="233.7" y="-8353.87" width="19.34" height="32766" filterUnits="userSpaceOnUse" color-interpolation-filters="sRGB"><feFlood flood-color="#fff" result="bg"/><feBlend in="SourceGraphic" in2="bg"/></filter><mask id="mask-2" x="233.7" y="-8353.87" width="19.34" height="32766" maskUnits="userSpaceOnUse"><g class="cls-72"/></mask><linearGradient id="Áåçûìÿííûé_ãðàäèåíò_2-2" x1="251.28" y1="12.88" x2="270.88" y2="12.88" xlink:href="#Áåçûìÿííûé_ãðàäèåíò_2"/><filter id="luminosity-noclip-3" x="256.52" y="-8353.87" width="4.64" height="32766" filterUnits="userSpaceOnUse" color-interpolation-filters="sRGB"><feFlood flood-color="#fff" result="bg"/><feBlend in="SourceGraphic" in2="bg"/></filter><mask id="mask-3" x="256.52" y="-8353.87" width="4.64" height="32766" maskUnits="userSpaceOnUse"><g class="cls-71"/></mask><linearGradient id="Áåçûìÿííûé_ãðàäèåíò_2-3" x1="274.53" y1="14.03" x2="278.45" y2="14.03" xlink:href="#Áåçûìÿííûé_ãðàäèåíò_2"/><filter id="luminosity-noclip-4" x="102.77" y="-8353.87" width="1.46" height="32766" filterUnits="userSpaceOnUse" color-interpolation-filters="sRGB"><feFlood flood-color="#fff" result="bg"/><feBlend in="SourceGraphic" in2="bg"/></filter><mask id="mask-4" x="102.77" y="-8353.87" width="1.46" height="32766" maskUnits="userSpaceOnUse"><g class="cls-70"/></mask><linearGradient id="Áåçûìÿííûé_ãðàäèåíò_2-4" x1="102.92" y1="297.59" x2="104.32" y2="296.42" gradientTransform="matrix(1, 0, 0, 1, 0, 0)" xlink:href="#Áåçûìÿííûé_ãðàäèåíò_2"/><filter id="luminosity-noclip-5" x="274.44" y="-8353.87" width="50.51" height="32766" filterUnits="userSpaceOnUse" color-interpolation-filters="sRGB"><feFlood flood-color="#fff" result="bg"/><feBlend in="SourceGraphic" in2="bg"/></filter><mask id="mask-5" x="274.44" y="-8353.87" width="50.51" height="32766" maskUnits="userSpaceOnUse"><g class="cls-69"/></mask><linearGradient id="Áåçûìÿííûé_ãðàäèåíò_2-5" x1="176.79" y1="-55.21" x2="187.67" y2="-63.68" gradientTransform="matrix(-0.77, -0.64, -0.64, 0.77, 399.81, 200.29)" xlink:href="#Áåçûìÿííûé_ãðàäèåíò_2"/><filter id="luminosity-noclip-6" x="240.49" y="-8353.87" width="36.76" height="32766" filterUnits="userSpaceOnUse" color-interpolation-filters="sRGB"><feFlood flood-color="#fff" result="bg"/><feBlend in="SourceGraphic" in2="bg"/></filter><mask id="mask-6" x="240.49" y="-8353.87" width="36.76" height="32766" maskUnits="userSpaceOnUse"><g class="cls-68"/></mask><linearGradient id="Áåçûìÿííûé_ãðàäèåíò_2-6" x1="186.75" y1="-3.01" x2="201.12" y2="-14.2" gradientTransform="matrix(-0.77, -0.64, -0.64, 0.77, 399.81, 200.29)" xlink:href="#Áåçûìÿííûé_ãðàäèåíò_2"/><filter id="luminosity-noclip-7" x="269.12" y="-8353.87" width="13.02" height="32766" filterUnits="userSpaceOnUse" color-interpolation-filters="sRGB"><feFlood flood-color="#fff" result="bg"/><feBlend in="SourceGraphic" in2="bg"/></filter><mask id="mask-7" x="269.12" y="-8353.87" width="13.02" height="32766" maskUnits="userSpaceOnUse"><g class="cls-67"/></mask><linearGradient id="Áåçûìÿííûé_ãðàäèåíò_4" x1="108.94" y1="-117.7" x2="117.01" y2="-102.25" gradientTransform="matrix(0.51, 0.67, -0.53, 0.4, 161.52, 49.07)" gradientUnits="userSpaceOnUse"><stop offset="0.06" stop-color="#fff"/><stop offset="1"/></linearGradient><filter id="luminosity-noclip-8" x="132.8" y="20.74" width="24.12" height="15.22" filterUnits="userSpaceOnUse" color-interpolation-filters="sRGB"><feFlood flood-color="#fff" result="bg"/><feBlend in="SourceGraphic" in2="bg"/></filter><mask id="mask-8" x="132.8" y="20.74" width="24.12" height="15.22" maskUnits="userSpaceOnUse"><g class="cls-1"><path class="cls-2" d="M135.81,36l16.57-1.45a4.89,4.89,0,0,0,3.11-8.28,5.16,5.16,0,0,0-3.75-1.42,5.41,5.41,0,0,0-5.27,3.87s-.48-9.9-6.61-7.6c-6.28,2.35-1.58,9.27-1.58,9.27s-5.71,1.15-5.48,3.28S135.81,36,135.81,36Z"/></g></mask><linearGradient id="Áåçûìÿííûé_ãðàäèåíò_92" x1="148.85" y1="28.64" x2="173.19" y2="28.64" gradientTransform="translate(-17.97 10.26) rotate(-3.88)" gradientUnits="userSpaceOnUse"><stop offset="0.06" stop-color="#fff"/><stop offset="0.43" stop-color="#fff"/><stop offset="1" stop-color="#fff"/></linearGradient><filter id="luminosity-noclip-9" x="102.77" y="295.97" width="1.46" height="2.67" filterUnits="userSpaceOnUse" color-interpolation-filters="sRGB"><feFlood flood-color="#fff" result="bg"/><feBlend in="SourceGraphic" in2="bg"/></filter><mask id="mask-9" x="102.77" y="295.97" width="1.46" height="2.67" maskUnits="userSpaceOnUse"><g class="cls-7"><path class="cls-8" d="M103.73,298.64q-.45-1.35-1-2.67c.48.29,1,.56,1.46.82C104.05,297.4,103.88,298,103.73,298.64Z"/></g></mask><linearGradient id="Áåçûìÿííûé_ãðàäèåíò_92-2" x1="102.92" y1="297.59" x2="104.32" y2="296.42" gradientTransform="matrix(1, 0, 0, 1, 0, 0)" xlink:href="#Áåçûìÿííûé_ãðàäèåíò_92"/><linearGradient id="Áåçûìÿííûé_ãðàäèåíò_11" x1="148.6" y1="22.29" x2="187.21" y2="22.29" gradientTransform="matrix(-0.77, -0.64, -0.64, 0.77, 399.81, 200.29)" gradientUnits="userSpaceOnUse"><stop offset="0.09" stop-color="#249cd4"/><stop offset="0.87" stop-color="#2bbcff"/></linearGradient><linearGradient id="Áåçûìÿííûé_ãðàäèåíò_11-2" x1="170.17" y1="64.7" x2="181.46" y2="48.57" gradientTransform="matrix(1, 0, 0, -1, 59.65, 212.28)" xlink:href="#Áåçûìÿííûé_ãðàäèåíò_11"/><linearGradient id="Áåçûìÿííûé_ãðàäèåíò_11-3" x1="162.98" y1="-4.51" x2="188.98" y2="-4.51" xlink:href="#Áåçûìÿííûé_ãðàäèåíò_11"/><filter id="luminosity-noclip-10" x="274.44" y="28.09" width="50.51" height="33.49" filterUnits="userSpaceOnUse" color-interpolation-filters="sRGB"><feFlood flood-color="#fff" result="bg"/><feBlend in="SourceGraphic" in2="bg"/></filter><mask id="mask-10" x="274.44" y="28.09" width="50.51" height="33.49" maskUnits="userSpaceOnUse"><g class="cls-9"><path class="cls-10" d="M321.33,31.22s-17.91,8.27-29.72,17.19-14.9,13.18-14.9,13.18l-2.27-3.29s14-13.47,30.06-21.26,20.9-9.79,20.41-8.65S321.33,31.22,321.33,31.22Z"/></g></mask><linearGradient id="Áåçûìÿííûé_ãðàäèåíò_92-3" x1="176.79" y1="-55.21" x2="187.67" y2="-63.68" gradientTransform="matrix(-0.77, -0.64, -0.64, 0.77, 399.81, 200.29)" xlink:href="#Áåçûìÿííûé_ãðàäèåíò_92"/><filter id="luminosity-noclip-11" x="240.49" y="60.12" width="36.76" height="36.66" filterUnits="userSpaceOnUse" color-interpolation-filters="sRGB"><feFlood flood-color="#fff" result="bg"/><feBlend in="SourceGraphic" in2="bg"/></filter><mask id="mask-11" x="240.49" y="60.12" width="36.76" height="36.66" maskUnits="userSpaceOnUse"><g class="cls-11"><path class="cls-12" d="M277.25,64.33s-9.33,8.89-15.93,15.74-14.88,16.7-14.88,16.7l-5.95-4s13.93-13.91,22.66-22.43c7.9-7.72,10.94-10.25,10.94-10.25Z"/></g></mask><linearGradient id="Áåçûìÿííûé_ãðàäèåíò_92-4" x1="186.75" y1="-3.01" x2="201.12" y2="-14.2" gradientTransform="matrix(-0.77, -0.64, -0.64, 0.77, 399.81, 200.29)" xlink:href="#Áåçûìÿííûé_ãðàäèåíò_92"/><linearGradient id="Áåçûìÿííûé_ãðàäèåíò_11-4" x1="170.06" y1="66.55" x2="180.79" y2="51.23" gradientTransform="matrix(1, 0, 0, -1, 58.56, 215.27)" xlink:href="#Áåçûìÿííûé_ãðàäèåíò_11"/><linearGradient id="Áåçûìÿííûé_ãðàäèåíò_11-5" x1="169.92" y1="72.41" x2="179.97" y2="58.05" gradientTransform="matrix(1, 0, 0, -1, 54.92, 225.26)" xlink:href="#Áåçûìÿííûé_ãðàäèåíò_11"/><linearGradient id="Áåçûìÿííûé_ãðàäèåíò_609" x1="240.73" y1="-17.47" x2="253.93" y2="-8.21" gradientTransform="matrix(-0.77, -0.64, -0.64, 0.77, 453.29, 263.41)" gradientUnits="userSpaceOnUse"><stop offset="0.17" stop-color="#e0f3f4"/><stop offset="0.79" stop-color="#4d98a0"/></linearGradient><filter id="luminosity-noclip-12" x="269.12" y="78.21" width="13.02" height="6.08" filterUnits="userSpaceOnUse" color-interpolation-filters="sRGB"><feFlood flood-color="#fff" result="bg"/><feBlend in="SourceGraphic" in2="bg"/></filter><mask id="mask-12" x="269.12" y="78.21" width="13.02" height="6.08" maskUnits="userSpaceOnUse"><g class="cls-13"><path class="cls-14" d="M269.12,84.28s1.7-7.32,7.48-5.89a7.72,7.72,0,0,1,5.54,5.1,14.73,14.73,0,0,0-5.54-2.19C271.33,80.61,269.88,83.54,269.12,84.28Z"/></g></mask><linearGradient id="Áåçûìÿííûé_ãðàäèåíò_614" x1="108.94" y1="-117.7" x2="117.01" y2="-102.25" gradientTransform="matrix(0.51, 0.67, -0.53, 0.4, 161.52, 49.07)" gradientUnits="userSpaceOnUse"><stop offset="0.06" stop-color="#fff"/><stop offset="1" stop-color="#fff"/></linearGradient><linearGradient id="Áåçûìÿííûé_ãðàäèåíò_11-6" x1="145.65" y1="111.97" x2="163.52" y2="98.06" gradientTransform="matrix(-0.77, -0.54, -0.57, 0.82, 386.71, 180.76)" xlink:href="#Áåçûìÿííûé_ãðàäèåíò_11"/><linearGradient id="Áåçûìÿííûé_ãðàäèåíò_9" x1="186.58" y1="118.27" x2="220.44" y2="118.27" gradientTransform="matrix(-0.65, -0.65, -0.71, 0.71, 396.57, 213.97)" gradientUnits="userSpaceOnUse"><stop offset="0.25" stop-color="#249cd4"/><stop offset="0.62" stop-color="#2bbcff"/></linearGradient><linearGradient id="Áåçûìÿííûé_ãðàäèåíò_8" x1="181.25" y1="113.12" x2="217.66" y2="113.12" gradientTransform="translate(-17.97 10.26) rotate(-3.88)" gradientUnits="userSpaceOnUse"><stop offset="0.12" stop-color="#0a2d51"/><stop offset="0.86" stop-color="#19437f"/><stop offset="1" stop-color="#0a2d51"/></linearGradient><linearGradient id="Áåçûìÿííûé_ãðàäèåíò_6" x1="181.13" y1="115.96" x2="208.95" y2="115.96" gradientTransform="translate(-17.97 10.26) rotate(-3.88)" gradientUnits="userSpaceOnUse"><stop offset="0.12" stop-color="#0a2d51"/><stop offset="1" stop-color="#0a2d51"/></linearGradient><linearGradient id="Áåçûìÿííûé_ãðàäèåíò_136" x1="188.25" y1="59.34" x2="224.07" y2="59.34" gradientTransform="translate(-17.97 10.26) rotate(-3.88)" gradientUnits="userSpaceOnUse"><stop offset="0.11" stop-color="#ffffa4"/><stop offset="0.41" stop-color="#ffd234"/><stop offset="0.8" stop-color="#ff9200"/></linearGradient><linearGradient id="Áåçûìÿííûé_ãðàäèåíò_70" x1="191.24" y1="61.29" x2="229.24" y2="30.14" gradientTransform="translate(-17.97 10.26) rotate(-3.88)" gradientUnits="userSpaceOnUse"><stop offset="0.12" stop-color="#0a2d51"/><stop offset="0.49" stop-color="#19437f"/></linearGradient><linearGradient id="Áåçûìÿííûé_ãðàäèåíò_6-2" x1="219.03" y1="52.36" x2="226.19" y2="52.36" xlink:href="#Áåçûìÿííûé_ãðàäèåíò_6"/><linearGradient id="Áåçûìÿííûé_ãðàäèåíò_6-3" x1="221.92" y1="35.06" x2="248.54" y2="35.06" xlink:href="#Áåçûìÿííûé_ãðàäèåíò_6"/><linearGradient id="Áåçûìÿííûé_ãðàäèåíò_70-2" x1="165.78" y1="53.68" x2="206.75" y2="31.85" xlink:href="#Áåçûìÿííûé_ãðàäèåíò_70"/><linearGradient id="Áåçûìÿííûé_ãðàäèåíò_136-2" x1="211.72" y1="31.9" x2="203.97" y2="39.68" xlink:href="#Áåçûìÿííûé_ãðàäèåíò_136"/><linearGradient id="Áåçûìÿííûé_ãðàäèåíò_136-3" x1="217.14" y1="32.33" x2="212.47" y2="38.67" xlink:href="#Áåçûìÿííûé_ãðàäèåíò_136"/><filter id="luminosity-noclip-13" x="233.7" y="3.1" width="19.34" height="4.46" filterUnits="userSpaceOnUse" color-interpolation-filters="sRGB"><feFlood flood-color="#fff" result="bg"/><feBlend in="SourceGraphic" in2="bg"/></filter><mask id="mask-13" x="233.7" y="3.1" width="19.34" height="4.46" maskUnits="userSpaceOnUse"><g class="cls-3"><path class="cls-4" d="M233.7,7.56s5-.25,9.5-.38S253,3.1,253,3.1Z"/></g></mask><linearGradient id="Áåçûìÿííûé_ãðàäèåíò_92-5" x1="251.28" y1="12.88" x2="270.88" y2="12.88" xlink:href="#Áåçûìÿííûé_ãðàäèåíò_92"/><filter id="luminosity-noclip-14" x="256.52" y="0" width="4.64" height="10.95" filterUnits="userSpaceOnUse" color-interpolation-filters="sRGB"><feFlood flood-color="#fff" result="bg"/><feBlend in="SourceGraphic" in2="bg"/></filter><mask id="mask-14" x="256.52" y="0" width="4.64" height="10.95" maskUnits="userSpaceOnUse"><g class="cls-5"><path class="cls-6" d="M256.52.48s1.65,4.8,2.56,6.92A15.88,15.88,0,0,0,261.16,11L259.16,0Z"/></g></mask><linearGradient id="Áåçûìÿííûé_ãðàäèåíò_92-6" x1="274.53" y1="14.03" x2="278.45" y2="14.03" xlink:href="#Áåçûìÿííûé_ãðàäèåíò_92"/><linearGradient id="Áåçûìÿííûé_ãðàäèåíò_6-4" x1="208.58" y1="90.96" x2="247.63" y2="90.96" xlink:href="#Áåçûìÿííûé_ãðàäèåíò_6"/></defs><title>boost</title><g id="Layer_2" data-name="Layer 2"><g id="Ñëîé_1" data-name="Ñëîé 1"><g class="cls-15"><path class="cls-16" d="M135.81,36l16.57-1.45a4.89,4.89,0,0,0,3.11-8.28,5.16,5.16,0,0,0-3.75-1.42,5.41,5.41,0,0,0-5.27,3.87s-.48-9.9-6.61-7.6c-6.28,2.35-1.58,9.27-1.58,9.27s-5.71,1.15-5.48,3.28S135.81,36,135.81,36Z"/></g><path class="cls-17" d="M104.47,50.9s7.43-2.27,11.78-6.89c5-5.25,4.73-8.57,4.73-8.57l14.74,7.07s0,2.71-3.94,8.69a23.55,23.55,0,0,1-11.59,9.63c-.74.29-1.18.42-1.18.42Z"/><path class="cls-17" d="M121.28,57.18,111,50.59Z"/><rect class="cls-18" x="115.83" y="47.8" width="0.66" height="12.18" transform="matrix(0.54, -0.84, 0.84, 0.54, 7.97, 122.39)"/><path class="cls-17" d="M124.34,55.07l-10.1-6.44Z"/><polygon class="cls-18" points="124.16 55.35 114.06 48.91 114.42 48.36 124.52 54.79 124.16 55.35"/><path class="cls-17" d="M127,52.36l-9.77-5.88Z"/><rect class="cls-18" x="121.8" y="43.71" width="0.66" height="11.41" transform="translate(16.81 128.57) rotate(-58.95)"/><path class="cls-17" d="M129.48,49.28l-9.23-5.34Z"/><rect class="cls-18" x="124.53" y="41.28" width="0.66" height="10.67" transform="translate(21.96 131.31) rotate(-59.93)"/><path class="cls-17" d="M132,45.66l-9.61-4.58Z"/><rect class="cls-18" x="126.81" y="38.05" width="0.66" height="10.65" transform="translate(33.24 139.43) rotate(-64.48)"/><path class="cls-17" d="M110.06,94.85s7.77-.11,13.24-3.33c6.23-3.67,6.92-6.92,6.92-6.92l12.2,10.89s-.76,2.61-6.21,7.25a23.5,23.5,0,0,1-13.81,6c-.79.07-1.25.08-1.25.08Z"/><path class="cls-17" d="M124.46,105.57l-8-9.18Z"/><rect class="cls-18" x="120.13" y="94.89" width="0.66" height="12.18" transform="translate(-36.7 103.99) rotate(-41.07)"/><path class="cls-17" d="M128,104.39l-7.91-9Z"/><polygon class="cls-18" points="127.74 104.61 119.83 95.62 120.33 95.18 128.24 104.18 127.74 104.61"/><path class="cls-17" d="M131.32,102.54l-7.75-8.38Z"/><rect class="cls-18" x="127.11" y="92.64" width="0.66" height="11.41" transform="translate(-32.89 112.77) rotate(-42.8)"/><path class="cls-17" d="M134.54,100.26l-7.38-7.7Z"/><rect class="cls-18" x="130.52" y="91.08" width="0.66" height="10.67" transform="translate(-30.33 117.31) rotate(-43.77)"/><path class="cls-17" d="M137.92,97.47,130,90.39Z"/><rect class="cls-18" x="133.61" y="88.61" width="0.66" height="10.65" transform="translate(-25.28 131.53) rotate(-48.33)"/><path class="cls-17" d="M88.28,67.72S91,75,95.82,79.1c5.52,4.66,8.83,4.24,8.83,4.24L98.41,98.46s-2.71.14-8.9-3.46A23.45,23.45,0,0,1,79.25,84c-.33-.72-.49-1.15-.49-1.15Z"/><path class="cls-17" d="M83,84.86l6-10.6Z"/><rect class="cls-18" x="79.86" y="79.23" width="12.18" height="0.66" transform="translate(-25.66 115.08) rotate(-60.44)"/><path class="cls-17" d="M85.23,87.8l5.86-10.45Z"/><polygon class="cls-18" points="84.94 87.63 90.8 77.18 91.38 77.51 85.52 87.96 84.94 87.63"/><path class="cls-17" d="M88.08,90.32l5.33-10.09Z"/><rect class="cls-18" x="85.04" y="84.94" width="11.41" height="0.66" transform="translate(-27.03 125.71) rotate(-62.17)"/><path class="cls-17" d="M91.3,92.6l4.82-9.51Z"/><rect class="cls-18" x="88.37" y="87.51" width="10.67" height="0.66" transform="translate(-27 131.75) rotate(-63.14)"/><path class="cls-17" d="M95.05,94.86l4-9.85Z"/><rect class="cls-18" x="91.75" y="89.61" width="10.65" height="0.66" transform="translate(-22.98 145.62) rotate(-67.7)"/><g class="cls-19"><path class="cls-20" d="M103.73,298.64q-.45-1.35-1-2.67c.48.29,1,.56,1.46.82C104.05,297.4,103.88,298,103.73,298.64Z"/></g><circle class="cls-18" cx="17.08" cy="150.82" r="6.21"/><circle class="cls-18" cx="61.88" cy="195.39" r="6.21"/><circle class="cls-18" cx="66.34" cy="227.78" r="9.73" transform="translate(-35.63 13.57) rotate(-9.22)"/><path class="cls-17" d="M202.18,162.51l5.14,6.15,6.93,3.9a2.78,2.78,0,0,1,1,4L199.71,199s-6.68-6.85-9.52-9.22-11.17-8-11.17-8l19.16-19.5A2.71,2.71,0,0,1,202.18,162.51Z"/><path class="cls-21" d="M228.49,143.07c-.75,14-12.83,32.58-12.83,32.58h0a40.42,40.42,0,0,1-16.74-13.93h0S215.57,146,228.49,143.07Z"/><path class="cls-22" d="M215.66,175.65s3-4.29-1.47,2.42C202.08,196.32,199.71,199,199.71,199a66.48,66.48,0,0,0-9.52-9.22s6.27-7.4,15.3-18.09c.41-.48.82-1,1.23-1.49A40.18,40.18,0,0,0,215.66,175.65Z"/><path class="cls-23" d="M206.72,170.15c8.57-10.58,16.69-25.07,17.34-25.67a29.36,29.36,0,0,1,4.43-1.41l0,.35c-.13,1.5-.89,7.65-4.64,16.73a115.78,115.78,0,0,1-8.16,15.5A40.18,40.18,0,0,1,206.72,170.15Z"/><path class="cls-22" d="M179,181.73c-.46.56,3.79,4.87,9.51,9.63s10.72,8.15,11.18,7.59-3.79-4.87-9.5-9.62S179.49,181.17,179,181.73Z"/><rect class="cls-21" x="233.85" y="103.44" width="22.24" height="40.31" transform="translate(353.11 375.77) rotate(-139.98)"/><path class="cls-24" d="M245.46,128s.88-1.11.41-2-8.51-8-8.51-8,9.87,6.19,12,8a18,18,0,0,1,3.69,5.41l-1.54,1.66Z"/><polygon class="cls-25" points="231.18 110 257.74 132.08 260.67 134.92 282.69 108.69 253.13 83.86 231.18 110"/><rect class="cls-26" x="216.42" y="120.32" width="22.24" height="48.07" transform="translate(308.98 401.22) rotate(-139.98)"/><path class="cls-27" d="M241.62,124.79a22.48,22.48,0,0,1-3.37,9.32c-3,4.77-26.16,28.65-26.16,28.65l8.52,7.15,30.91-36.81Z"/><path class="cls-28" d="M279.8,59.59l10,11.73L303,79.11c2.76,1.63,3.78,5,2.19,7.34L277.78,126.1s-12.95-13.17-18.43-17.77S238,92.66,238,92.66l34.36-33.94C274.26,56.79,277.75,57.2,279.8,59.59Z"/><path class="cls-21" d="M327.34,29.85c-2.08,24.91-21.46,55.06-21.46,55.06h0a84.64,84.64,0,0,1-32.22-27.06h0S300.91,33,324.18,27.14A2.55,2.55,0,0,1,327.34,29.85Z"/><path class="cls-22" d="M277.78,126.1l-7.45-2.69s-6.75-6.9-13.65-12.62c-9.07-7.51-15.9-12.22-15.9-12.22L238,92.66l1.67,1a147.14,147.14,0,0,1,38.16,32.45Z"/><path class="cls-22" d="M253.06,131.44a70.82,70.82,0,0,0-7.74-7.31,83.89,83.89,0,0,0-9.35-7l-1.86-4.61a108.6,108.6,0,0,1,23.82,19.75Z"/><path class="cls-27" d="M303.52,83.69c-12.88,23-25.74,42.41-25.74,42.41s-5.93-6.73-9.39-10.22A83.26,83.26,0,0,0,261,109s13.74-11.52,30.71-32.73A84.76,84.76,0,0,0,303.52,83.69Z"/><path class="cls-23" d="M296.74,69.75c9.63-12.7,24.89-37,29-40.06a.57.57,0,0,1,.91.53c-.41,3.75-3.15,22.4-18.94,47-1.43,2.23-2.84,4.38-4.23,6.48a84.76,84.76,0,0,1-11.85-7.43C293.34,74.18,295,72,296.74,69.75Z"/><circle class="cls-21" cx="274.32" cy="89.04" r="15.31" transform="translate(-5.35 18.58) rotate(-3.84)"/><path class="cls-27" d="M248.67,123.15s3.4-5.25,3-11c-.29-4-3.87-7.92-6-9.9a20.54,20.54,0,0,0-1.56-1.35s10.5,7.87,15.74,12.52,10.49,10,10.49,10l-9.66,11.51S252.83,126.67,248.67,123.15Z"/><rect class="cls-22" x="274.16" y="100.56" width="28.96" height="3.21" transform="translate(554.74 -49.29) rotate(130.86)"/><rect class="cls-29" x="294.84" y="91.05" width="2.71" height="2.9" transform="translate(559.92 -71) rotate(130.86)"/><rect class="cls-29" x="292.54" y="93.7" width="2.71" height="2.9" transform="translate(558.13 -64.87) rotate(130.86)"/><rect class="cls-29" x="290.25" y="96.36" width="2.71" height="2.9" transform="translate(556.35 -58.74) rotate(130.86)"/><rect class="cls-29" x="287.95" y="99.01" width="2.71" height="2.9" transform="translate(554.55 -52.61) rotate(130.86)"/><rect class="cls-29" x="285.65" y="101.67" width="2.71" height="2.9" transform="translate(552.76 -46.48) rotate(130.86)"/><rect class="cls-29" x="283.35" y="104.33" width="2.71" height="2.9" transform="translate(550.97 -40.35) rotate(130.86)"/><rect class="cls-29" x="281.06" y="106.98" width="2.71" height="2.9" transform="translate(549.18 -34.22) rotate(130.86)"/><rect class="cls-29" x="278.76" y="109.64" width="2.71" height="2.9" transform="translate(547.39 -28.08) rotate(130.86)"/><g class="cls-30"><path class="cls-31" d="M321.33,31.22s-17.91,8.27-29.72,17.19-14.9,13.18-14.9,13.18l-2.27-3.29s14-13.47,30.06-21.26,20.9-9.79,20.41-8.65S321.33,31.22,321.33,31.22Z"/></g><g class="cls-32"><path class="cls-33" d="M277.25,64.33s-9.33,8.89-15.93,15.74-14.88,16.7-14.88,16.7l-5.95-4s13.93-13.91,22.66-22.43c7.9-7.72,10.94-10.25,10.94-10.25Z"/></g><path class="cls-22" d="M234.15,119.18l17,14.31a.51.51,0,0,0,.72-.07.5.5,0,0,0-.07-.71l-17-14.31a.51.51,0,1,0-.66.78Z"/><rect class="cls-34" x="213.03" y="124.81" width="26.85" height="41.67" transform="translate(306.23 402.8) rotate(-139.98)"/><path class="cls-27" d="M238.2,128.29a17,17,0,0,1-2,8.83c-2.43,4.3-23.1,24.48-23.1,24.48l10.28,8.64,26.8-31.92Z"/><path class="cls-22" d="M229.18,121.53l20.56,17.26a.62.62,0,0,0,.8-.94L230,120.58a.62.62,0,1,0-.79,1Z"/><rect class="cls-35" x="208.42" y="131.74" width="28.79" height="36.48" transform="translate(297.02 408.12) rotate(-139.98)"/><path class="cls-27" d="M232.77,134.52a14.35,14.35,0,0,1-1.17,8.25c-2,3.87-20.51,21.18-20.51,21.18l11,9.26,23.46-27.94Z"/><path class="cls-22" d="M201.18,155.7c-.46.57,3.79,4.87,9.51,9.63s10.72,8.16,11.18,7.59-3.79-4.87-9.5-9.62S201.64,155.14,201.18,155.7Z"/><path class="cls-22" d="M223.1,127.26l22.05,18.51a.65.65,0,0,0,.93-.08.66.66,0,0,0-.08-.93L224,126.25a.66.66,0,1,0-.85,1Z"/><path class="cls-24" d="M272.19,81.23c2.9-3.78,7-3.26,10.24-.36S286.94,88,284,91.76c-.23.29-.47.56-.71.82h0a6.68,6.68,0,0,1-2.09,1.58,6.81,6.81,0,0,1-.82.39c-1.36.59-4.86,1.71-6.23,2.39a17,17,0,0,0-4.55,3.8,2.25,2.25,0,0,1-.84.59l-.4.17a1.39,1.39,0,0,1-1.39-.2l-3.11-2.47a1,1,0,0,1,0-1.62c1.74-1.49,5.21-4.68,5.7-6.82.65-2.87.49-6.05,2-8.19h0A8.64,8.64,0,0,1,272.19,81.23Z"/><path class="cls-29" d="M270.36,79.64c2.9-3.78,7-3.27,10.23-.36s4.52,7.1,1.61,10.88a8,8,0,0,1-.71.82h0a6.55,6.55,0,0,1-2.08,1.59c-.27.14-.55.27-.83.39-1.36.59-2.87,1-4.23,1.72-2.5,1.24-2.63,1.86-2.63,1.86l-2.6-2.31-2.63-2.33s.58-.23,1.23-3.1.5-6.06,2-8.2h0A8.52,8.52,0,0,1,270.36,79.64Z"/><path class="cls-36" d="M266.91,91.32a8.59,8.59,0,0,0,2.19,2.91A7.81,7.81,0,0,0,272.17,96s.26,1.46-.18,1.57-.5,0-.5,0-2.1,3-3.41,3.2-2.73-1.26-2.94-1.46a4.94,4.94,0,0,1-1.77-2.73c-.12-1.41,2.27-4.2,2.27-4.2s-.14,0-.13-.53S266.91,91.32,266.91,91.32Z"/><path d="M279.05,88.31c-.08-.18-.38-.56-1.22-.27A11.35,11.35,0,0,0,275,90.41a3.89,3.89,0,0,1-.26-1,3.63,3.63,0,0,0,.86-.67c.57-.61,1.25-1.69.95-2.2a.46.46,0,0,0-.36-.21c-.51,0-1.25,1-1.65,1.53a2.06,2.06,0,0,0-.41,1.19,1.29,1.29,0,0,1-.59.1.38.38,0,0,1-.3-.13.05.05,0,0,1,0,0l-.47.32h0s0,0,0,0a.41.41,0,0,0,.12.14l.17.11s0,0,0,0a1,1,0,0,0,.43.12,2.15,2.15,0,0,0,.69-.09,3.68,3.68,0,0,0,.38,1.16c-1.72,1.79-3.49,3.86-4,4.43a.35.35,0,0,1-.07.09l.45.38.16-.19c.87-1,2.36-2.74,3.78-4.22a1.87,1.87,0,0,0,.48.38,1.4,1.4,0,0,0,1.44-.14C278.41,90.56,279.43,89.08,279.05,88.31ZM275,88.24a6.58,6.58,0,0,1,1-1.17,3.64,3.64,0,0,1-.84,1.31,3.33,3.33,0,0,1-.39.36A1.65,1.65,0,0,1,275,88.24Zm1.5,2.86a.84.84,0,0,1-.86.11,1.1,1.1,0,0,1-.34-.28A11.66,11.66,0,0,1,278,88.59a.91.91,0,0,1,.45-.06.07.07,0,0,1,.06,0C278.66,88.85,278.13,90,276.48,91.1Z"/><path d="M274.08,87.48c.36-.43,1.2-1.49,1.07-2a.44.44,0,0,0-.25-.31c-.53-.21-1.43.7-1.88,1.43a4,4,0,0,0-.44,1,3,3,0,0,1-.91-.1A12.77,12.77,0,0,0,273.32,84c.1-.93-.27-1.17-.54-1.22-.78-.18-1.87,1.09-2.5,2.9a.69.69,0,0,0,0,.13,1.75,1.75,0,0,0-.09.82,1.33,1.33,0,0,0,.31.79,2.05,2.05,0,0,0,.38.34c-.36.59-.74,1.19-1.11,1.77-.78,1.21-1.55,2.35-2.07,3.09l-.12.17.45.32,0,0,0,0,.32-.46,0,0,.57-.84,0-.06c.66-1,1.56-2.35,2.37-3.68a3.27,3.27,0,0,0,1.11.18,2.1,2.1,0,0,0,0,.8,1,1,0,0,0,.17.36.05.05,0,0,0,0,0,.41.41,0,0,0,.12.14l.17.11s0,0,0,0h0l.27-.51a.22.22,0,0,1-.1-.09.64.64,0,0,1-.12-.23,1.84,1.84,0,0,1,0-.71A1.93,1.93,0,0,0,274.08,87.48Zm-.56-.59a3.56,3.56,0,0,1,1-1.1,5.61,5.61,0,0,1-.89,1.31,1.45,1.45,0,0,1-.38.33A4.53,4.53,0,0,1,273.52,86.89Zm-2.38.37a.93.93,0,0,1-.23-.21,1,1,0,0,1-.13-1c.63-1.88,1.6-2.71,1.88-2.65,0,0,.12.17.08.59A12.91,12.91,0,0,1,271.14,87.26Z"/><path d="M271.3,97.7a.3.3,0,0,0,.35-.18.29.29,0,0,0-.17-.37,12.29,12.29,0,0,1-3.05-2,11.65,11.65,0,0,1-2.54-3,.29.29,0,0,0-.39-.13.31.31,0,0,0-.13.4,11.78,11.78,0,0,0,2.68,3.15,12.22,12.22,0,0,0,3.22,2.08Z"/><path d="M269.61,98.47a.3.3,0,0,0,.34-.17.28.28,0,0,0-.15-.38,9.39,9.39,0,0,1-2.6-1.82,9.6,9.6,0,0,1-1.52-2,.29.29,0,0,0-.38-.15.3.3,0,0,0-.15.39,9.18,9.18,0,0,0,1.62,2.17,9.39,9.39,0,0,0,2.8,2Z"/><path d="M269.14,99.09a.29.29,0,0,0,.34-.17.29.29,0,0,0-.16-.38,9.39,9.39,0,0,1-2.6-1.82,8.6,8.6,0,0,1-1.51-2,.29.29,0,0,0-.39-.14.28.28,0,0,0-.14.38,8.83,8.83,0,0,0,1.62,2.17,9.55,9.55,0,0,0,2.79,2Z"/><path d="M268.66,99.71a.28.28,0,0,0,.34-.17.3.3,0,0,0-.15-.38,9.22,9.22,0,0,1-2.61-1.82,8.37,8.37,0,0,1-1.51-2,.29.29,0,0,0-.53.24,9.18,9.18,0,0,0,1.62,2.17,9.55,9.55,0,0,0,2.79,2Z"/><g class="cls-37"><path class="cls-38" d="M269.12,84.28s1.7-7.32,7.48-5.89a7.72,7.72,0,0,1,5.54,5.1,14.73,14.73,0,0,0-5.54-2.19C271.33,80.61,269.88,83.54,269.12,84.28Z"/></g><path class="cls-22" d="M286.39,72.51l1.44,1.19c12.73,10.4,17.72,11.66,17.93,11.7a.51.51,0,1,0,.23-1h0s-5-1.31-17.51-11.5-14.32-15.17-14.34-15.22a.51.51,0,0,0-1,.33C273.24,58.22,274.94,62.89,286.39,72.51Z"/><path class="cls-39" d="M213.67,176.28l5.16,5.56,6.73,3.13a2.74,2.74,0,0,1,1.18,3.82l-13.39,24s-6.65-6.09-9.46-8.14S193,197.85,193,197.85l16.93-21.42A2.46,2.46,0,0,1,213.67,176.28Z"/><path class="cls-21" d="M237.33,154.16c.06,13.93-10.27,33.74-10.27,33.74h0a35.69,35.69,0,0,1-16.5-12.05h0S225.34,158.43,237.33,154.16Z"/><path class="cls-40" d="M188.32,151.81l4.17,6,6.23,4a2.46,2.46,0,0,1,.46,3.76L181,185.9s-5.58-6.77-8-9.14-9.8-8.08-9.8-8.08l21.33-17.33A2.67,2.67,0,0,1,188.32,151.81Z"/><path class="cls-21" d="M216.62,134.91c-2.63,13.05-17,29.93-17,29.93h0a34.45,34.45,0,0,1-14.43-13.93h0S203.62,137,216.62,134.91Z"/><path class="cls-27" d="M227.06,187.9a126.3,126.3,0,0,0,6.82-16.27,112.51,112.51,0,0,1-8.07,18.83c-10.38,19.41-12.46,22.28-12.46,22.28a59.45,59.45,0,0,0-9.46-8.14L217.28,185l1.08-1.62A35.11,35.11,0,0,0,227.06,187.9Z"/><path class="cls-41" d="M268.8,177.5c0-.11,0-.24,0-.35S268.81,177.27,268.8,177.5Z"/><path class="cls-23" d="M218.36,183.38c7.47-11.42,14.31-26.69,14.88-27.34a27.4,27.4,0,0,1,4.09-1.88c0,.11,0,.23,0,.35,0,1.5-.42,7.69-3.44,17.12a126.3,126.3,0,0,1-6.82,16.27A35.11,35.11,0,0,1,218.36,183.38Z"/><path class="cls-41" d="M185.68,151.68l-2.42,1.74c-17.6,12.65-20.14,15.26-20.14,15.26a56.17,56.17,0,0,1,9.13,7.63s7-6.58,17-16.06c.45-.43,1.41-1.12,1.89-1.55A29.55,29.55,0,0,1,185.68,151.68Z"/><path class="cls-23" d="M191.16,158.7c7.74-7,16.29-13.31,20-16.06a10.13,10.13,0,0,0,2.63-2.9l0,0a1.47,1.47,0,0,0-1.56-2.19c-2.08.44-5.77,1.47-12,4.79a135.22,135.22,0,0,0-14.57,9.38A29.55,29.55,0,0,0,191.16,158.7Z"/><path class="cls-21" d="M163.08,168.8c-.52.51,3,4.75,7.92,9.48s9.29,8.15,9.82,7.65-3-4.75-7.92-9.48S163.61,168.3,163.08,168.8Z"/><path class="cls-21" d="M192.89,197.94c-.41.6,3.83,4.43,9.46,8.54s10.52,7,10.93,6.35-3.83-4.43-9.46-8.54S193.3,197.33,192.89,197.94Z"/><path class="cls-41" d="M257,173.59l0-.35Z"/><path class="cls-18" d="M201.45,191.64a.51.51,0,0,0,.68-.14A184.76,184.76,0,0,1,215,175.4a56.42,56.42,0,0,1,11.94-10,.5.5,0,0,0,.19-.69.51.51,0,0,0-.69-.2A57.71,57.71,0,0,0,214.2,174.7a189.18,189.18,0,0,0-12.91,16.21.51.51,0,0,0,.13.71Z"/><path class="cls-18" d="M282.35,53.22a.52.52,0,0,0,.68,0c15.72-14.89,39-22.78,39.23-22.86a.51.51,0,1,0-.32-1c-.24.08-23.72,8-39.62,23.09a.52.52,0,0,0,0,.72Z"/><path class="cls-18" d="M234.49,110.39h0a.52.52,0,0,0,.72-.08c2.43-3,6.47-8,7-8.38a.49.49,0,0,0,.2-.68.52.52,0,0,0-.7-.21c-.59.3-4.83,5.54-7.3,8.63A.52.52,0,0,0,234.49,110.39Z"/><polygon class="cls-41" points="234.31 112.7 244.69 101.82 243.13 100.47 231.18 110 234.31 112.7"/><path class="cls-42" d="M179.72,75.68S178.64,87,179.88,95s2.79,22.28.74,31.07-6.58,27.47-7.15,28,7.23-1.3,7.23-1.3,11.81-22,13.16-33.21,1-30.39,2.57-32.6,6.52-4.1,7.78-8.85c1.62-6.13-2.89-12.75-2.89-12.75S181.08,72.22,179.72,75.68Z"/><path class="cls-43" d="M195.65,72.15A26.39,26.39,0,0,1,190.32,77c-2.78,1.73-5.26,6.47-5.76,9.28s2.63,25.36,2.76,27,4.33,3.41,3.39,3.72-6.18,1.91-5,1.91,5.11.74,3.87,1.46-6.21,2.17-5.29,2.57,4.77,1.39,2.84,1.91-5.43,13.2-6.54,17.94a25.63,25.63,0,0,0,.07,9.94l-7.37,1.55s7.79-29.38,8-32.77-2-26.9-2.56-31.87a40.45,40.45,0,0,1-.29-8.78s9.37-8.57,12.5-9.19S195.65,72.15,195.65,72.15Z"/><rect class="cls-44" x="132.42" y="64.53" width="0.94" height="2.54" transform="translate(41.12 -50.68) rotate(25.43)"/><rect class="cls-44" x="142.52" y="70.51" width="0.94" height="1.57" transform="translate(44.45 -54.48) rotate(25.42)"/><rect class="cls-21" x="117.9" y="68.45" width="28.89" height="18.46" transform="translate(46.16 -49.29) rotate(25.42)"/><rect class="cls-21" x="119.43" y="67.8" width="30.16" height="10.81" transform="translate(44.45 -50.65) rotate(25.42)"/><path class="cls-45" d="M116.94,76.44s3.85,2.45,12.8,4.51c7.63,1.76,10.4.92,10.4.92l-21-10Z"/><rect class="cls-44" x="130.84" y="76.1" width="3.47" height="4.35" transform="translate(46.43 -49.33) rotate(25.42)"/><path class="cls-18" d="M132.11,75.64a7.17,7.17,0,0,0-.22,3.1,2.88,2.88,0,0,0,1.38,2.1l1.8-3.79Z"/><polygon class="cls-21" points="146.06 67.98 133.39 61.96 131.8 65.31 133.89 66.3 134.9 64.29 143.32 68.29 142.31 70.31 144.47 71.33 146.06 67.98"/><rect class="cls-21" x="137.25" y="64.83" width="0.66" height="9.33" transform="translate(15.76 163.92) rotate(-64.58)"/><polygon class="cls-46" points="201.69 68.37 207.17 48.7 207.46 66.2 201.69 68.37"/><path class="cls-47" d="M202.15,67.78a89.32,89.32,0,0,0,6.32-23.44c1.5-12.75-6.4-14.47-7-14.74-4-1.91-19.58-.84-20.51,1.13-2.23,4.74,6,15.16,6.26,26.34.2,7.67-9.46,23.49-11.08,25.06-2.66,2.58,5.49,2.37,13.49-8.78.87-1.2,1.89.07,5-1.21a14.35,14.35,0,0,0,2.7-1.78A20.15,20.15,0,0,1,202.15,67.78Z"/><polygon class="cls-48" points="199.15 33.15 205.44 44.49 198.95 29.61 199.15 33.15"/><path class="cls-48" d="M187.19,71.81S195,60.08,197.4,53.29a29.51,29.51,0,0,0,1-15.22,15.49,15.49,0,0,1,.09-4.65l-3.44-1.51-3.7-.07S187.68,69.08,187.19,71.81Z"/><path class="cls-49" d="M190.42,28.81s3.45-7.28,3.52-9.85,0-7.93,4.08-8.68,5.25,3.23,5.47,4.79.57,5.83.31,5.89-1.12-.61-1.12-.61.14,2.7-1,3.52a3.52,3.52,0,0,1-2.62.48s-1.49,3.64-1.3,4.78a22,22,0,0,0,1.39,3.71S191.25,33,190.42,28.81Z"/><path class="cls-50" d="M189.77,28.3s5.89,8,7.25,13.39-8.76,30.79-12.37,33.94-9.36,4.58-9.36,4.58,5.86-19.82,6.6-29.95S179,33,181.53,30,189.77,28.3,189.77,28.3Z"/><path class="cls-50" d="M198.71,28.43s3,8.38,5.76,12.88S207.4,66.2,207.4,66.2l1-.58s2.11-23.7,1.59-28.19-3.49-8-5-8.1S198.71,28.43,198.71,28.43Z"/><path class="cls-51" d="M175.29,80.21s8.17-1.2,11.13-7,6.18-22.59,5.72-27.19-1-5-1-5l2.9-.59-3.34-1.58s.16-1.49-1.73-4.28a46.67,46.67,0,0,0-5.08-5.86s-4-.06-3.24,5.48A125.07,125.07,0,0,1,181.19,53C180.92,56.5,176.73,77.29,175.29,80.21Z"/><path class="cls-52" d="M202.83,29.06s4.33,7.69,4.86,8.71-2.13,1-2.13,1l2.5.71a40.45,40.45,0,0,1,1.16,5.81c.24,2.53-1.46,11.4-1.46,11.4l-.36,9.52,1.77-.76s2.38-23.1,1.28-28.49-3.93-7.08-4.69-7.35A22.25,22.25,0,0,0,202.83,29.06Z"/><path class="cls-53" d="M210.15,39s20,3.47,21.88-.24-.91-19.41-1.61-20.61-1.59-1-1.59-1l-3,1.12s.42,13,.09,13.75-15.09-2.73-20.2-2.37C205.76,29.6,209.52,38.67,210.15,39Z"/><path class="cls-54" d="M182.83,29s-25.36,9.46-31.16,17.53-9.18,13-9.18,13l3.76,3.43s9.21-11.31,15.56-15.48,20.52-7.08,22.69-10S182.83,29,182.83,29Z"/><path class="cls-46" d="M142.49,59.5s4.92-.9,7.78-3.91c4.34-4.56,6.55-5.85,5.87-6.63s-1.35-2.78-.36-2.34,3.58,2.42,3.53,1.51S156.54,44,158,44.59s3.6,2.54,3.44,1.73-1.65-4.14-.07-2.74,6.07-1.2,9.79-2.6S182,33.22,182,33.22s.92,5.63-.79,6.33c-5.1,2.1-15.9,5.71-19.38,7.9s-15.56,15.48-15.56,15.48Z"/><path class="cls-46" d="M210.74,39.47S210,37.43,209,35a22.37,22.37,0,0,0-2.15-3.82s7.31,4,9.9,4.8,8.38,2.44,9.83,2.41.54-1.53-.23-3,1.5,1,2.36,1.33-2.55-4.1-1.65-4,3.77,3,3.68,2.21-2.68-3.5-2.22-3.29a22.71,22.71,0,0,0,2.49.61s-1.66-9.89-2.32-11.64a4.78,4.78,0,0,0-2.82-2.43s2.63-1.74,3.76-1.29.79,1.18.79,1.18,2.23,8.73,2.53,13.67-.46,6.14-1,7.33C230.86,41.33,215.3,41,210.74,39.47Z"/><path class="cls-49" d="M145.56,62.3A19,19,0,0,1,144,67.1c-1.1,2.11-1.57,1.43-1.29-.09a9.11,9.11,0,0,0,.16-2.43,5.93,5.93,0,0,0-1.54,1.9c-.17.44.85,1,.6,1.19-1.22.76-2.52-.81-2.52-.81s-.5.78-1,.67c-1.13-.25-.31-1.44-.31-1.44s-.94.83-1.19-.06-.14-.86-.14-.86-2.54,1.9-2.44.7,8.18-6.37,8.18-6.37Z"/><path class="cls-46" d="M198.71,28.43l-.43.41s4.79,9.59,5.91,12.54a37.42,37.42,0,0,1,2.26,8.49c.14.65.36,3.68.36,3.68l.59,12.5s1.53-13.4-1-21C205.35,42,198.71,28.43,198.71,28.43Z"/><path class="cls-46" d="M143.78,60l-.29-.19c.4-.6,9.8-14.56,11.95-15.69l.1,0c.85-.31,6-3.3,11.48-6.46,8.22-4.75,13.65-7.87,14.28-7.92a.28.28,0,0,1,.25.11c.54.58.89,4.59.64,6.08l-.35,0c.27-1.61-.17-5.53-.55-5.8-.56.05-8.07,4.4-14.1,7.88-5.48,3.17-10.65,6.17-11.54,6.49l-.08,0C153.88,45.37,146.52,56,143.78,60Z"/><polygon class="cls-46" points="178.87 63.11 184.11 62.06 184.66 60.34 179.16 61.75 178.87 63.11"/><path class="cls-46" d="M179.82,61.75a.16.16,0,0,1-.15,0,.17.17,0,0,1-.09-.23c0-.08,3.43-8.5,4.31-13.17a29.56,29.56,0,0,0,.74-6.45.17.17,0,0,1,.16-.19.18.18,0,0,1,.19.16,29.1,29.1,0,0,1-.75,6.55c-.89,4.7-4.3,13.15-4.33,13.23A.24.24,0,0,1,179.82,61.75Z"/><path class="cls-46" d="M181.52,52.77l-.1,0a.18.18,0,0,1-.16-.19l1-10.25a.17.17,0,0,1,.19-.16.18.18,0,0,1,.16.19l-1,10.25A.19.19,0,0,1,181.52,52.77Z"/><path class="cls-46" d="M196.13,41.71a.22.22,0,0,1-.16,0L190.53,39v-.09a18.53,18.53,0,0,0-1.72-4.23,19.78,19.78,0,0,0-5-5.8.18.18,0,1,1,.22-.28,20.39,20.39,0,0,1,5.12,5.93,20.76,20.76,0,0,1,1.74,4.23l5.28,2.67a.16.16,0,0,1,.07.23A.18.18,0,0,1,196.13,41.71Z"/><path class="cls-46" d="M190,62.26a.2.2,0,0,1-.13,0,.18.18,0,0,1-.12-.22,62.35,62.35,0,0,0,2-11.56,42.45,42.45,0,0,0-.53-9.51.17.17,0,0,1,.14-.21.18.18,0,0,1,.2.14,42.87,42.87,0,0,1,.54,9.59,62.5,62.5,0,0,1-2,11.65A.16.16,0,0,1,190,62.26Z"/><path class="cls-46" d="M207.63,38.5a6.66,6.66,0,0,1-2.06.43.16.16,0,0,1-.18-.16.18.18,0,0,1,.16-.19,4.42,4.42,0,0,0,2-.48c-.24-.52-4.22-7.72-4.26-7.79a.17.17,0,0,1,.07-.24h0a.18.18,0,0,1,.23.07c.17.3,4,7.28,4.28,7.82a.36.36,0,0,1,0,.32A.68.68,0,0,1,207.63,38.5Z"/><path class="cls-46" d="M208.63,53.82a.14.14,0,0,1-.11,0,.18.18,0,0,1-.15-.2,71.15,71.15,0,0,0,.69-7.48A24.77,24.77,0,0,0,208,39.83a.18.18,0,0,1,.11-.22.19.19,0,0,1,.22.12,25,25,0,0,1,1.1,6.44,71.74,71.74,0,0,1-.69,7.52A.16.16,0,0,1,208.63,53.82Z"/><path class="cls-55" d="M192.87,22.11a8.71,8.71,0,0,0,2.8-2.58c.8-1.43,1-2.23.75-2.87-.57-1.34.21-3.85.74-3.14s.24,2.58.71,2.12.35-2.88,1.76-3.52,2.31.54,3.94.3a15.11,15.11,0,0,0,5.07-1.72c2.78-2,3.84-4.19,2.82-5.93-1.58-2.69-4.72-2.3-9-.82C198,5.5,192.3,8.42,192.5,9.74s2.53,2.57,1.26,2.55a1.66,1.66,0,0,0-1.88,1.83C192,16.37,193.77,19.48,192.87,22.11Z"/><path class="cls-56" d="M189.16,27.4A16.6,16.6,0,0,1,193.54,29a18.11,18.11,0,0,1,4.1,2.8s-.19.39.45,1,.41.6.41.6-.56.39-.87.17-1.07-.92-1.07-.92l-.93,1.77a38.56,38.56,0,0,1-4.48-3.18c-1.68-1.4-4-3.21-4-3.21Z"/><path class="cls-57" d="M197.8,28H200A3.79,3.79,0,0,1,201,30.32a6.28,6.28,0,0,1-.76,3c-.05-.06-.91-1.28-1-1.12a2.23,2.23,0,0,0-.13.79,23.6,23.6,0,0,1-1.42-3.88A7.85,7.85,0,0,1,197.8,28Z"/><path class="cls-21" d="M197.78,33.65l2.28,2.43-.27-3.37A14,14,0,0,1,197.78,33.65Z"/><path class="cls-21" d="M183.49,66.11l2.8-4.49s6.58-6.72,10.05-13.5a27.11,27.11,0,0,0,2.92-13.32l.81,1s1,10.61-3.27,18.87S188.87,65,183.49,66.11Z"/><path class="cls-58" d="M199,24.36l-2.31-1.67s-.21,3.06-.17,4.66A4.49,4.49,0,0,0,198,30.2a3.7,3.7,0,0,1-.2-1.83A31.29,31.29,0,0,1,199,24.36Z"/><path class="cls-46" d="M196.53,17.29a14.26,14.26,0,0,1-2.53-2.5,5,5,0,0,1-1-2.39,1.53,1.53,0,0,0-1.19,1.83c.16,1.68,1.12,4.21,1.2,5.55a9.3,9.3,0,0,1-.14,2.33S196.59,20.2,196.53,17.29Z"/><path class="cls-46" d="M201.07,11.71h0a.19.19,0,0,1-.21-.13.17.17,0,0,1,.13-.21h0c.13,0,4.24-1.16,6-4.14.35-.59.41-1.06.19-1.39-.61-.92-3.25-.8-4.21-.67a.19.19,0,0,1-.2-.15.18.18,0,0,1,.15-.2c.15,0,3.69-.46,4.55.82a1.63,1.63,0,0,1-.18,1.77C205.46,10.48,201.43,11.62,201.07,11.71Z"/><path class="cls-46" d="M200.1,11.85a.19.19,0,0,1-.19,0,.17.17,0,0,1,0-.24c2-2.56,3.45-5,3.22-5.29s-1.62,0-2.37.35a.18.18,0,0,1-.23-.08.19.19,0,0,1,.08-.24c.23-.1,2.21-1,2.8-.24s-2.33,4.55-3.22,5.71Z"/><path class="cls-46" d="M198,14.14h0a.17.17,0,0,1-.15-.2,4.09,4.09,0,0,0-1.19-2.73,3.8,3.8,0,0,0-3.18-1.37.17.17,0,0,1,0-.34A4.1,4.1,0,0,1,196.85,11a4.23,4.23,0,0,1,1.26,3A.18.18,0,0,1,198,14.14Z"/><path class="cls-46" d="M207.14,10.83a13.82,13.82,0,0,1-4.27,1.36.18.18,0,0,1-.05-.35c.05,0,4.66-.59,6.84-3.5.54-.74.74-1.31.56-1.67s-1.19-.5-1.2-.5a.18.18,0,0,1-.18-.17.18.18,0,0,1,.18-.18s1.15,0,1.51.69c.25.49.05,1.18-.6,2A8.19,8.19,0,0,1,207.14,10.83Z"/><rect class="cls-21" x="206.91" y="12.06" width="30.02" height="2.51" transform="translate(1.22 40.11) rotate(-10.36)"/><polygon class="cls-21" points="247.68 11.47 218.02 16.21 217.25 11.99 246.65 5.83 247.68 11.47"/><polygon class="cls-21" points="259.32 11.08 233.76 14.59 232.53 7.83 257.67 2.03 259.32 11.08"/><polygon class="cls-23" points="256.81 2.08 233.76 14.59 258.48 11.19 256.81 2.08"/><polygon class="cls-23" points="232.59 8.78 233.6 13.72 218.02 16.21 232.59 8.78"/><polygon class="cls-23" points="217.44 13.03 217.86 15.34 208.34 17 217.44 13.03"/><rect class="cls-21" x="257.69" y="0.13" width="2.68" height="13.26" transform="matrix(0.98, -0.18, 0.18, 0.98, 3, 46.67)"/><rect class="cls-21" x="206.16" y="14.09" width="1.99" height="3.85" transform="translate(0.49 37.49) rotate(-10.35)"/><path class="cls-49" d="M225.24,10.48s.93,1.94,1.31,2.07.35-.73.35-.73.37,1,.76.85.27-.94.27-.94.33.79.63.55.25-1,.25-1,.09.71.51.74.29-1,0-1.89-.58-1.2-.83-1.15-.29.18-.29.18-.46-.4-.74-.2-.27.39-.27.39-.72-.5-1-.26a1,1,0,0,0-.31.53s-.62-.43-.8-.16a5.48,5.48,0,0,0-.41,1Z"/><path class="cls-49" d="M226.27,18s-2.83-2.73-2.93-3.45a7.56,7.56,0,0,1,1.27-3.06c.25-.28.29,2.41.27,3s1.06.34,2.25.26c1.58-.11,2.33-.21,2.53,0s-.68,2.39-.68,2.39Z"/><path class="cls-58" d="M229,17.06a4.46,4.46,0,0,1-2.13-.39,3.85,3.85,0,0,1-1.74-1.89,9.32,9.32,0,0,1,2.88-.54,16.66,16.66,0,0,1,1.75.1A4.56,4.56,0,0,1,229,17.06Z"/><path class="cls-23" d="M208.34,17l9.1-4Z"/><g class="cls-59"><path class="cls-60" d="M233.7,7.56s5-.25,9.5-.38S253,3.1,253,3.1Z"/></g><g class="cls-61"><path class="cls-62" d="M256.52.48s1.65,4.8,2.56,6.92A15.88,15.88,0,0,0,261.16,11L259.16,0Z"/></g><path class="cls-50" d="M202.15,67.78c3-2.2,32.07-8.37,34.66-4s-2.07,37.1-2.07,37.1l-6.75,2s.26-6.62.06-14.12c-.33-12.1-.17-13.74-.17-13.74-1.9-1-33.61,10.57-33.61,10.57S198.74,70.3,202.15,67.78Z"/><path class="cls-63" d="M196.43,86.91c-.92.22,2.56-3.11,2.26-7.21a54.48,54.48,0,0,1,.05-6.52c-.14.32,2.15,5.47,2.79,5s5.86-4.83,20.28-8.6c6.07-1.59,7-.44,7.58-.52s5.32-3.72,4.54-2.58-4.15,5.46-3.41,5.14,3.89-1.72,2.56-.15-4.14,4.78-3.22,4.42,2.91-.91,2.1.23-.75,13.09,0,16.25a81.11,81.11,0,0,0,2.82,8.55l-6.75,2s.14-27.11-1.21-27.57c-2.12-.74-20.71,5.84-23.15,7.11C201.58,83.49,200.23,86,196.43,86.91Z"/><path class="cls-18" d="M179.59,157.64s-1-.16-1-1.62a15.87,15.87,0,0,1,.22-2.82l-4.94,1s.53,6.94,2.41,7.29C177.54,161.7,178.33,158.94,179.59,157.64Z"/><path class="cls-64" d="M174.56,161s1.36,1.85,2.8,1,11.77-7.56,11.33-7.82-.65-1.09-.95-.94-5.15,2.79-6.8,2.15a2.56,2.56,0,0,1-1.76-2l-2.26,1.52s1.4,1.7,1.32,2.67S174.56,161,174.56,161Z"/><path class="cls-18" d="M235.38,105.48s-1-.09-1.09-1.55a16.24,16.24,0,0,1,0-2.83l-4.86,1.3s1,6.9,2.87,7.12C233.6,109.66,234.21,106.86,235.38,105.48Z"/><path class="cls-64" d="M230.58,109.11s1.47,1.76,2.86.82,11.26-8.31,10.8-8.54-.72-1-1-.87-5,3.11-6.66,2.58a2.58,2.58,0,0,1-1.88-1.9l-2.16,1.67s1.51,1.61,1.49,2.58S230.58,109.11,230.58,109.11Z"/><path class="cls-46" d="M176.35,83.73h-.11a.22.22,0,1,1,0-.43s1.7.12,5.38-2.18c2.54-1.58,5.13-4.72,6.67-6.59.95-1.15,1.35-1.62,1.59-1.7a5.08,5.08,0,0,1,1-.13c1.25-.12,3.36-.32,4.58-1.31a20.58,20.58,0,0,1,3.67-2.27c.35-.18.66-.33.91-.48,1-.58,2-1,2-1a.21.21,0,0,1,.29.1.22.22,0,0,1-.11.29s-1,.46-2,1c-.26.15-.57.31-.93.49a20.53,20.53,0,0,0-3.6,2.22c-1.32,1.08-3.51,1.28-4.81,1.4a6.65,6.65,0,0,0-.86.11,13.42,13.42,0,0,0-1.39,1.57c-1.56,1.89-4.18,5.06-6.78,6.69C178.55,83.58,176.79,83.73,176.35,83.73Z"/><path class="cls-46" d="M187.35,74.45h-.06a.23.23,0,0,1-.15-.28,17.4,17.4,0,0,1,2.52-4.84,21.78,21.78,0,0,1,3.69-3.89.22.22,0,0,1,.31,0,.22.22,0,0,1,0,.3A21.19,21.19,0,0,0,190,69.6a16.93,16.93,0,0,0-2.45,4.7A.21.21,0,0,1,187.35,74.45Z"/><path class="cls-46" d="M192.87,72.73a.21.21,0,0,1-.21-.21,4.92,4.92,0,0,1,.39-2,37.81,37.81,0,0,1,2-3.72.22.22,0,0,1,.3-.07.21.21,0,0,1,.07.3,39.54,39.54,0,0,0-2,3.66,4.88,4.88,0,0,0-.37,1.86.21.21,0,0,1-.2.23Z"/><path class="cls-46" d="M188.58,80.89l-.3.36a8.9,8.9,0,0,1-2.2,1.4l-.35.18c-2,1-5.39,2.33-5.43,2.35l-.15,0,.15,2.25.26-.07a25.74,25.74,0,0,0,4.08-1.55l.27-.13c1.67-.92,4-2.45,4-2.46l.12-.08Zm-3.79,4.41-.09,0a24,24,0,0,1-4,1.56l-.09-1.38c.62-.25,3.07-1.22,4.84-2.07l.84-.42a15.52,15.52,0,0,0,2-1.24l.22,1.18C188.05,83.3,186.22,84.51,184.79,85.3Z"/><path class="cls-46" d="M187.1,124.48a5.84,5.84,0,0,1-2.58-.76,15,15,0,0,1-3.33-2.06l-.07-.06v-.09s0-2.53-.18-4.94S179,94,178.56,89.65a31.2,31.2,0,0,1-.12-6.7.23.23,0,0,1,.25-.19.22.22,0,0,1,.19.25A30.76,30.76,0,0,0,179,89.6c.45,4.39,2.25,24.55,2.38,26.94.12,2.16.17,4.38.18,4.86a16.35,16.35,0,0,0,3.16,1.93c2.35,1.21,3.18.53,3.19.52a.22.22,0,0,1,.3,0,.22.22,0,0,1,0,.31A1.65,1.65,0,0,1,187.1,124.48Z"/><path class="cls-46" d="M187.8,120.57h-.07c-1.55-.52-5.18-1.8-5.37-2.44a.33.33,0,0,1,0-.29c.41-.51,5.45-1.17,7.6-1.43a.22.22,0,0,1,.25.19.22.22,0,0,1-.19.24,49.9,49.9,0,0,0-7.23,1.23,27.29,27.29,0,0,0,5,2.09.21.21,0,0,1,.14.27A.22.22,0,0,1,187.8,120.57Z"/><rect class="cls-46" x="183.89" y="115.1" width="5.18" height="0.44" transform="translate(-27.5 67.51) rotate(-19.14)"/><path class="cls-46" d="M173.59,154.16h-.06a.22.22,0,0,1-.15-.27l1-3.51,6.78-.46a.22.22,0,0,1,0,.43l-6.47.44L173.8,154A.21.21,0,0,1,173.59,154.16Z"/><path class="cls-46" d="M196.43,87.13l-.09,0a.22.22,0,0,1-.11-.29s.92-2,1.9-4.31a5.91,5.91,0,0,0,.36-3.73,5.84,5.84,0,0,1-.11-.78c0-1,.14-4.67.14-4.83a.23.23,0,0,1,.23-.21.22.22,0,0,1,.21.23s-.18,3.86-.14,4.8a5.84,5.84,0,0,0,.1.72,6.24,6.24,0,0,1-.39,4c-1,2.27-1.9,4.31-1.9,4.31A.21.21,0,0,1,196.43,87.13Z"/><path class="cls-46" d="M196.43,87.13a.22.22,0,0,1,0-.44,9.43,9.43,0,0,0,5.15-3c1.37-1.68,3.1-2.23,6.56-3.32,1.83-.57,4.11-1.28,7.07-2.4a49.72,49.72,0,0,1,9.95-2.87,9.4,9.4,0,0,0,1.73-.41c1.15-.45,3.64-4.79,4.5-6.43a.22.22,0,0,1,.3-.09.23.23,0,0,1,.09.3c-.33.61-3.22,6-4.73,6.63a9.78,9.78,0,0,1-1.82.43,49.85,49.85,0,0,0-9.86,2.85c-3,1.12-5.26,1.84-7.09,2.41-3.38,1.06-5.08,1.6-6.36,3.18a9.66,9.66,0,0,1-5.42,3.1Z"/><path class="cls-46" d="M228.8,76.56c-.45,0-.51-.14-.55-.21-.2-.43,1.3-2.32,4.46-5.63a.22.22,0,0,1,.32.3,37,37,0,0,0-4.35,5.12A20.73,20.73,0,0,0,233.33,75a.22.22,0,0,1,.28.13.22.22,0,0,1-.14.28A17.52,17.52,0,0,1,228.8,76.56Z"/><path class="cls-46" d="M235.22,97.38l-1.67.3-3.05.54-2.41.71L228,99l0,.4-.24,3.82.3-.08,1.47-.42c1.15-.32,2.65-.76,3.22-1s1.17-.37,1.58-.48l.47-.12.14,0,.51-3.74Zm-6.79,1.91,2.17-.64,3.1-.55,1.22-.22-.35,2.6,0,.25c-.34.09-1.19.32-1.94.57s-3.47,1-4.37,1.28Z"/><path class="cls-46" d="M207.66,65.59l-.44,0c0-.08.64-8.18,1.08-11.94.1-.76.1-.81.33-.79s.14,0,.15.27h0a1.57,1.57,0,0,1,0,.2c0,.66-.16,2.23-.52,6Z"/><path class="cls-46" d="M199.93,84l-.1,0a.22.22,0,0,1-.1-.29s1.43-3,2.17-5.16a11.09,11.09,0,0,0,.57-4.13.22.22,0,1,1,.44,0,11.46,11.46,0,0,1-.59,4.31c-.76,2.17-2.18,5.17-2.19,5.2A.23.23,0,0,1,199.93,84Z"/><path class="cls-46" d="M204.6,15.26a.28.28,0,0,0-.16-.18,1.55,1.55,0,0,0-.94.09h0l-.17.05.11,1.07,0,.44.09.84.15,0h.07l.22,0a.54.54,0,0,0,.37-.11A5.78,5.78,0,0,0,204.6,15.26Zm-.57,2h-.09l-.17-1.67a2.25,2.25,0,0,1,.42-.07A9.7,9.7,0,0,1,204,17.21Z"/><path class="cls-46" d="M202.92,15.39c-.08-.22-.1-.28-3.86.34l-.1,0h-.06l0,.16c0,.06-.16,1.46-.17,1.71v.14l.08.07s.11.08.4.08a16.32,16.32,0,0,0,2.81-.41.72.72,0,0,0,.45-.39,2.38,2.38,0,0,0,.19-.42c0-.14.1-.29.14-.43A2.87,2.87,0,0,0,202.92,15.39Zm-1,1.69a19.58,19.58,0,0,1-2.77.41c0-.31.09-.93.14-1.35,1.28-.21,2.67-.42,3.17-.46a3.71,3.71,0,0,1-.17.7C202.18,16.74,202,17.06,201.93,17.08Z"/><path class="cls-46" d="M203.59,16.75h0l-1.08-.06a.22.22,0,1,1,0-.43l1.09,0a.23.23,0,0,1,.21.24A.23.23,0,0,1,203.59,16.75Z"/><path class="cls-46" d="M199.1,16s-1.77-2.62-2.33-2.75-1.54.76-1.54.76l.24.18s.76-.67,1.09-.3,2.19,3.91,2.19,3.91Z"/><path class="cls-65" d="M296.55,353.46H235a11.94,11.94,0,0,0,.08-1.35,12.34,12.34,0,0,0-22.2-7.41,17.92,17.92,0,0,0-2-2.34,17.62,17.62,0,0,0-20.77-3.09,28.06,28.06,0,0,0,.54-5.45,27.7,27.7,0,0,0-27.7-27.7h-.46a8.45,8.45,0,1,0-5.23.58,27.75,27.75,0,0,0-18.57,13.73c-.4-.23-.82-.44-1.24-.64A15.73,15.73,0,0,0,133,304a31.46,31.46,0,0,0,17.58-40.86h0c-2.45-14.2,1.94-26.66,14.48-43.32,11.71-15.56,18.77-24.7,22.42-29.38l1.39-1.77c.09-.1.16-.2.23-.29l1.49-1.87c-.23.23-.8.84-1.66,1.74l-.26.27-1.55,1.61c-6.37,6.58-20.16,20.43-32.07,29.69-16.11,12.52-30.87,13.82-30.87,13.82h0a17.67,17.67,0,0,0-13.5,9.23,17.94,17.94,0,0,0-31.6-.39A10.24,10.24,0,0,0,63.58,249l-1.1.08c0-.06,0-.12,0-.19A17.65,17.65,0,0,0,35.3,234.07a23.29,23.29,0,0,0-9.24-15.36A17.65,17.65,0,0,0,1.62,193.37H0V172.63a18,18,0,0,1,34.54,7.23,18.8,18.8,0,0,1-.18,2.39A22.32,22.32,0,0,1,52.2,204.11a23.4,23.4,0,0,1-.14,2.53A38.54,38.54,0,0,1,85,213.06c10.68,8,23.58,12.61,36.92,12.13,11.06-.4,22.65-2.33,30.61-7.65a210.81,210.81,0,0,0,33.55-28.29l1.49-1.55.29-.31c5-5.29,8.45-9.48,10-11.49a1.81,1.81,0,0,1,2.66-.37,1.7,1.7,0,0,1,.59,1.36,1.91,1.91,0,0,1-.36,1.07c-1.59,2.12-5.21,6.41-9.66,12l-.18.23,0,0-1.41,1.8c-8.09,10.37-18.28,24.58-24.16,38.35l-.18.42a46.59,46.59,0,0,0,9,49.62,41,41,0,0,1,11,28c0,.78,0,1.56-.07,2.33a23.31,23.31,0,0,1,17.55,19.47,18,18,0,0,1,9.1-2.47h.25a11.66,11.66,0,1,1,16.28-10.71,13.39,13.39,0,0,1-.09,1.43A21.27,21.27,0,0,1,257,338.4v.08c.78-.05,1.57-.08,2.36-.08a37.13,37.13,0,0,1,17.2,4.2,11.66,11.66,0,1,1,20,10.86Z"/><path class="cls-66" d="M195.19,353.46h-3.56a23.78,23.78,0,0,0,2.77-2A17,17,0,0,0,195.19,353.46Z"/><path class="cls-66" d="M166.89,353.46h-7.53a41.35,41.35,0,0,0,.87-6.23,23.9,23.9,0,0,0,2.45,2.91A23.2,23.2,0,0,0,166.89,353.46Z"/></g></g></svg>