<svg xmlns="http://www.w3.org/2000/svg" viewBox="0 0 427.23 420.95"><defs><style>.cls-1{fill:none;stroke:#d1d3d4;stroke-miterlimit:10;stroke-width:4px;}.cls-1,.cls-9{opacity:0.44;}.cls-2{opacity:0.29;}.cls-3{fill:#939598;}.cls-4{opacity:0.19;}.cls-5,.cls-9{fill:#223492;}.cls-6{fill:#d1d3d4;}.cls-7{fill:#34bdf6;}.cls-8{fill:#bcbec0;}</style></defs><title>fiatPayment</title><g id="Layer_2" data-name="Layer 2"><g id="Layer_1-2" data-name="Layer 1"><path class="cls-1" d="M171.89,44.09a149.4,149.4,0,0,1,219.7,201.75"/><g class="cls-2"><circle class="cls-3" cx="4.41" cy="305.19" r="4.41"/><path class="cls-3" d="M4.41,266.83A4.41,4.41,0,1,1,0,271.24,4.4,4.4,0,0,1,4.41,266.83Z"/><circle class="cls-3" cx="4.41" cy="237.29" r="4.41"/><path class="cls-3" d="M4.41,198.94A4.41,4.41,0,1,1,0,203.35,4.4,4.4,0,0,1,4.41,198.94Z"/><circle class="cls-3" cx="4.41" cy="169.4" r="4.41"/><circle class="cls-3" cx="4.41" cy="135.45" r="4.41"/><path class="cls-3" d="M4.41,97.09A4.42,4.42,0,1,1,0,101.51,4.41,4.41,0,0,1,4.41,97.09Z"/><circle class="cls-3" cx="4.41" cy="67.56" r="4.41"/><path class="cls-3" d="M38.36,300.78A4.41,4.41,0,1,1,34,305.19,4.41,4.41,0,0,1,38.36,300.78Z"/><path class="cls-3" d="M38.36,266.83A4.41,4.41,0,1,1,34,271.24,4.41,4.41,0,0,1,38.36,266.83Z"/><path class="cls-3" d="M38.36,232.88A4.41,4.41,0,1,1,34,237.29,4.42,4.42,0,0,1,38.36,232.88Z"/><path class="cls-3" d="M38.36,198.94A4.41,4.41,0,1,1,34,203.35,4.41,4.41,0,0,1,38.36,198.94Z"/><path class="cls-3" d="M38.36,165A4.41,4.41,0,1,1,34,169.4,4.41,4.41,0,0,1,38.36,165Z"/><path class="cls-3" d="M38.36,131A4.41,4.41,0,1,1,34,135.45,4.42,4.42,0,0,1,38.36,131Z"/><path class="cls-3" d="M38.36,97.09A4.42,4.42,0,1,1,34,101.51,4.42,4.42,0,0,1,38.36,97.09Z"/><path class="cls-3" d="M38.36,63.15A4.41,4.41,0,1,1,34,67.56,4.41,4.41,0,0,1,38.36,63.15Z"/><circle class="cls-3" cx="72.31" cy="305.19" r="4.41" transform="translate(-110.57 50.38) rotate(-22.34)"/><path class="cls-3" d="M72.31,266.83a4.41,4.41,0,1,1-4.42,4.41A4.41,4.41,0,0,1,72.31,266.83Z"/><circle class="cls-3" cx="72.31" cy="237.29" r="4.41" transform="translate(-84.76 45.29) rotate(-22.34)"/><path class="cls-3" d="M72.31,198.94a4.41,4.41,0,1,1-4.42,4.41A4.41,4.41,0,0,1,72.31,198.94Z"/><circle class="cls-3" cx="72.31" cy="169.4" r="4.41" transform="translate(-58.96 40.19) rotate(-22.34)"/><circle class="cls-3" cx="72.31" cy="135.45" r="4.41" transform="translate(-46.06 37.65) rotate(-22.34)"/><path class="cls-3" d="M72.31,97.09a4.42,4.42,0,1,1-4.42,4.42A4.42,4.42,0,0,1,72.31,97.09Z"/><circle class="cls-3" cx="72.31" cy="67.56" r="4.41" transform="translate(-20.25 32.55) rotate(-22.34)"/><path class="cls-3" d="M106.25,300.78a4.41,4.41,0,1,1-4.41,4.41A4.4,4.4,0,0,1,106.25,300.78Z"/><path class="cls-3" d="M106.25,266.83a4.41,4.41,0,1,1-4.41,4.41A4.4,4.4,0,0,1,106.25,266.83Z"/><path class="cls-3" d="M106.25,232.88a4.41,4.41,0,1,1-4.41,4.41A4.41,4.41,0,0,1,106.25,232.88Z"/><path class="cls-3" d="M106.25,198.94a4.41,4.41,0,1,1-4.41,4.41A4.4,4.4,0,0,1,106.25,198.94Z"/><path class="cls-3" d="M106.25,165a4.41,4.41,0,1,1-4.41,4.41A4.4,4.4,0,0,1,106.25,165Z"/><path class="cls-3" d="M106.25,131a4.41,4.41,0,1,1-4.41,4.41A4.41,4.41,0,0,1,106.25,131Z"/><path class="cls-3" d="M106.25,97.09a4.42,4.42,0,1,1-4.41,4.42A4.41,4.41,0,0,1,106.25,97.09Z"/><path class="cls-3" d="M106.25,63.15a4.41,4.41,0,1,1-4.41,4.41A4.4,4.4,0,0,1,106.25,63.15Z"/><circle class="cls-3" cx="140.2" cy="305.19" r="4.41"/><path class="cls-3" d="M140.2,266.83a4.41,4.41,0,1,1-4.41,4.41A4.4,4.4,0,0,1,140.2,266.83Z"/><circle class="cls-3" cx="140.2" cy="237.29" r="4.41"/><path class="cls-3" d="M140.2,198.94a4.41,4.41,0,1,1-4.41,4.41A4.4,4.4,0,0,1,140.2,198.94Z"/><circle class="cls-3" cx="140.2" cy="169.4" r="4.41"/><circle class="cls-3" cx="140.2" cy="135.45" r="4.41"/><path class="cls-3" d="M140.2,97.09a4.42,4.42,0,1,1-4.41,4.42A4.41,4.41,0,0,1,140.2,97.09Z"/><circle class="cls-3" cx="140.2" cy="67.56" r="4.41"/></g><g class="cls-4"><circle class="cls-5" cx="272.03" cy="418.35" r="2.6"/><path class="cls-5" d="M272,395.73a2.6,2.6,0,1,1-2.6,2.6A2.61,2.61,0,0,1,272,395.73Z"/><circle class="cls-5" cx="272.03" cy="378.32" r="2.6"/><path class="cls-5" d="M272,355.71a2.6,2.6,0,1,1-2.6,2.6A2.6,2.6,0,0,1,272,355.71Z"/><circle class="cls-5" cx="272.03" cy="338.29" r="2.6"/><circle class="cls-5" cx="272.03" cy="318.28" r="2.6"/><path class="cls-5" d="M272,295.67a2.6,2.6,0,1,1-2.6,2.6A2.6,2.6,0,0,1,272,295.67Z"/><circle class="cls-5" cx="272.03" cy="278.25" r="2.6"/><path class="cls-5" d="M292,415.75a2.6,2.6,0,1,1-2.6,2.6A2.59,2.59,0,0,1,292,415.75Z"/><path class="cls-5" d="M292,395.73a2.6,2.6,0,1,1-2.6,2.6A2.6,2.6,0,0,1,292,395.73Z"/><path class="cls-5" d="M292,375.72a2.6,2.6,0,1,1-2.6,2.6A2.59,2.59,0,0,1,292,375.72Z"/><path class="cls-5" d="M292,355.71a2.6,2.6,0,1,1-2.6,2.6A2.59,2.59,0,0,1,292,355.71Z"/><path class="cls-5" d="M292,335.69a2.6,2.6,0,1,1-2.6,2.6A2.6,2.6,0,0,1,292,335.69Z"/><path class="cls-5" d="M292,315.68a2.6,2.6,0,1,1-2.6,2.6A2.59,2.59,0,0,1,292,315.68Z"/><path class="cls-5" d="M292,295.67a2.6,2.6,0,1,1-2.6,2.6A2.59,2.59,0,0,1,292,295.67Z"/><path class="cls-5" d="M292,275.65a2.6,2.6,0,1,1-2.6,2.6A2.6,2.6,0,0,1,292,275.65Z"/><circle class="cls-5" cx="312.05" cy="418.35" r="2.6" transform="translate(-135.58 149.99) rotate(-22.34)"/><path class="cls-5" d="M312.05,395.73a2.6,2.6,0,1,1-2.6,2.6A2.61,2.61,0,0,1,312.05,395.73Z"/><circle class="cls-5" cx="312.05" cy="378.32" r="2.6" transform="translate(-120.37 146.99) rotate(-22.34)"/><path class="cls-5" d="M312.05,355.71a2.6,2.6,0,1,1-2.6,2.6A2.6,2.6,0,0,1,312.05,355.71Z"/><circle class="cls-5" cx="312.05" cy="338.29" r="2.6" transform="translate(-105.16 143.99) rotate(-22.34)"/><circle class="cls-5" cx="312.05" cy="318.28" r="2.6" transform="translate(-97.55 142.49) rotate(-22.34)"/><path class="cls-5" d="M312.05,295.67a2.6,2.6,0,1,1-2.6,2.6A2.6,2.6,0,0,1,312.05,295.67Z"/><circle class="cls-5" cx="312.05" cy="278.25" r="2.6" transform="translate(-82.34 139.48) rotate(-22.34)"/><path class="cls-5" d="M332.07,415.75a2.6,2.6,0,1,1-2.6,2.6A2.6,2.6,0,0,1,332.07,415.75Z"/><path class="cls-5" d="M332.07,395.73a2.6,2.6,0,1,1-2.6,2.6A2.61,2.61,0,0,1,332.07,395.73Z"/><path class="cls-5" d="M332.07,375.72a2.6,2.6,0,1,1-2.6,2.6A2.6,2.6,0,0,1,332.07,375.72Z"/><path class="cls-5" d="M332.07,355.71a2.6,2.6,0,1,1-2.6,2.6A2.6,2.6,0,0,1,332.07,355.71Z"/><path class="cls-5" d="M332.07,335.69a2.6,2.6,0,1,1-2.6,2.6A2.61,2.61,0,0,1,332.07,335.69Z"/><path class="cls-5" d="M332.07,315.68a2.6,2.6,0,1,1-2.6,2.6A2.6,2.6,0,0,1,332.07,315.68Z"/><path class="cls-5" d="M332.07,295.67a2.6,2.6,0,1,1-2.6,2.6A2.6,2.6,0,0,1,332.07,295.67Z"/><path class="cls-5" d="M332.07,275.65a2.6,2.6,0,1,1-2.6,2.6A2.61,2.61,0,0,1,332.07,275.65Z"/><circle class="cls-5" cx="352.08" cy="418.35" r="2.6"/><path class="cls-5" d="M352.08,395.73a2.6,2.6,0,1,1-2.6,2.6A2.6,2.6,0,0,1,352.08,395.73Z"/><circle class="cls-5" cx="352.08" cy="378.32" r="2.6"/><path class="cls-5" d="M352.08,355.71a2.6,2.6,0,1,1-2.6,2.6A2.59,2.59,0,0,1,352.08,355.71Z"/><circle class="cls-5" cx="352.08" cy="338.29" r="2.6"/><circle class="cls-5" cx="352.08" cy="318.28" r="2.6"/><path class="cls-5" d="M352.08,295.67a2.6,2.6,0,1,1-2.6,2.6A2.59,2.59,0,0,1,352.08,295.67Z"/><circle class="cls-5" cx="352.08" cy="278.25" r="2.6"/></g><circle class="cls-6" cx="391.59" cy="245.84" r="9.05"/><circle class="cls-6" cx="174.46" cy="43.46" r="9.05"/><path class="cls-7" d="M314.6,296.2c12.87-6.2,19.83-5,29.56,5.27l3.73-1.88c12.3-6.15,28,1.31,28.67,14.93,1,20.74.27,41.56.27,62.61H367V371.8c0-17.83.07-35.66,0-53.5-.05-8.28-7.61-13.65-14.11-9.66-2.68,1.65-4.57,5.43-5.61,8.63-.94,2.86-.18,6.27-.25,9.43s-1.64,5.6-5.07,5.54-4.89-2.42-4.91-5.71c0-4.49.07-9,0-13.49-.16-6.33-4.48-10.75-10.19-10.62-5.56.13-9.58,4.41-9.74,10.55-.11,4.33-.06,8.67,0,13,0,3.42-1.14,6.19-4.88,6.25-4.05.08-5.2-2.83-5.17-6.45.05-5.84.09-11.67,0-17.5-.11-6.41-4.26-10.84-10-10.85s-9.86,4.38-10,10.82c-.1,5.49-.08,11,0,16.49.05,3.79-.38,7.56-5.15,7.47s-4.92-4-4.91-7.7q0-36.75,0-73.5a42,42,0,0,0-.07-4.49,10,10,0,0,0-19.83,0,48.83,48.83,0,0,0-.07,5q0,43.5,0,87c0,3.48.68,7.5-3.87,8.66-4.26,1.09-5.65-2.55-7.32-5.41-2.6-4.47-5.12-9-7.79-13.39-3.41-5.61-9-7.32-14-4.42s-6.41,8.65-3.19,14.36c5.88,10.45,12,20.79,17.94,31.19.9,1.56,1.75,3.16,2.93,5.32l-8.46,5.07c-6.41-11.06-12.46-21.76-18.77-32.31-3.58-6-6.59-12-4.94-19.72H179c11.75,15.09,7,32.33,8.06,49.19H176.93c0-7.13-.3-14.1.08-21,.45-8.35-1-16.24-6.43-22.53-9.33-10.88-9.27-20.9-.39-32.21,5.6-7.14,9.37-15.71,13.91-23.67,3.61-6.32,2.53-12.27-2.68-15.26s-10.87-1.07-14.55,5.27q-12.54,21.62-25,43.27c-1.24,2.15-2.52,4.28-4.06,6.9l-9-5.13c7.49-6.32,3.1-13.79,3.11-20.79,0-21.5,0-43,0-64.5,0-1.81,0-3.63,0-5.51-.55.15-1,.15-1.09.32-7.06,15.26-14.43,30.39-21,45.88-2.12,5.05-2.77,11-2.82,16.59-.27,28.83-.13,57.66-.13,86.49V377h-10v-5.3c0-28.83.06-57.66,0-86.5a60.66,60.66,0,0,1,5.65-26.13c7.08-15.26,14-30.58,21.2-45.8,1.24-2.64,2.9-5.45,5.14-7.18,2.64-2.05,3.1-4.25,3.1-7.23q-.11-42,0-84c0-22.84,14.68-37.5,37.53-37.52q47.51,0,95,0C287.32,77.36,302,92,302,114.86q0,84,0,168c0,3.22.31,5.42,3.94,6.87C309,291,311.44,293.77,314.6,296.2Zm-172.66-6.45c1.56-2.23,2.34-3.21,3-4.28,4.52-7.78,8.95-15.61,13.53-23.35,6.41-10.85,18.26-14.33,28.24-8.41,9.8,5.82,12.5,17.63,6.44,28.36-3.2,5.65-6.51,11.25-9.75,16.88-3.37,5.87-6.73,11.74-10.51,18.35,14.69,0,28.46,0,42.22-.06,1,0,2.09-.9,3.07-1.49,7.07-4.23,14.11-4.27,21.32-.22,2,1.14,4.42,1.6,7.49,2.66v-6.53c0-21.5-.1-43,.06-64.51a20,20,0,0,1,39.6-3.37,45.09,45.09,0,0,1,.36,8c0,12.43,0,24.87,0,37.28,4.91.25,5-2.52,5-5.82Q291.91,199,292,114.7c0-17.1-10.27-27.32-27.41-27.34q-47.52,0-95,0c-17.43,0-27.56,10.19-27.56,27.69q0,84.26,0,168.52Z"/><path class="cls-8" d="M107.19,207.11H97V150l-6.64,5.61-6.62-7.42c4.76-4.65,9.53-9.74,14.84-14.2,1.35-1.12,5.22-1.18,6.53-.07,5.31,4.47,10.07,9.59,15.52,15l-7.87,6.11-5.59-4.83Z"/><path class="cls-8" d="M337,207.23H327V150l-6.55,5.56-6.68-7.36c4.86-4.75,9.64-9.85,14.95-14.3,1.34-1.13,5.21-1.15,6.53,0,5.32,4.46,10.09,9.56,15.57,14.93l-7.43,6.56L337,149.9v57.33Z"/><path class="cls-8" d="M106.5,227.26H97.31v-9.55h9.19Z"/><path class="cls-8" d="M336.74,217.65V227h-9.43v-9.34Z"/><path class="cls-8" d="M336.88,237.67V247h-9.55v-9.31Z"/><path class="cls-5" d="M267,187.67a50,50,0,0,1-50.7,49.69c-27.39-.23-49.52-22.92-49.32-50.57.21-27.43,22.77-49.54,50.45-49.44C244.77,137.46,267.13,160.15,267,187.67Zm-10,0a40,40,0,1,0-40.38,39.71A40,40,0,0,0,256.93,187.63Z"/><path class="cls-9" d="M217,307.37c-3.49,0-7,.13-10.47,0a15,15,0,0,1,.16-29.92c6.81-.2,13.64-.19,20.45,0a14.92,14.92,0,0,1,14.81,15c0,8.19-6.45,14.62-15,14.91C223.65,307.47,220.32,307.38,217,307.37Zm-.19-10h9c3.46,0,6-1.37,6-5.09,0-3.41-2.44-4.86-5.71-4.87-6.15,0-12.3,0-18.44,0-3.3,0-5.59,1.63-5.52,5.05s2.45,4.86,5.72,4.88C210.82,297.37,213.81,297.35,216.8,297.36Z"/><path class="cls-9" d="M197.18,107V97.61h39.53V107Z"/><path class="cls-9" d="M177.24,97.46h9.31V107h-9.31Z"/><path class="cls-5" d="M211.57,212.69c-9.81-2.34-13.84-6.52-14.36-15,4.2-.13,7.56-.53,11.88,2.75,3.48,2.64,10.51.8,15.94.46.66,0,2-3.48,1.5-4.6a7.51,7.51,0,0,0-4.6-3.71c-2.87-.62-6-.17-9-.22-8.49-.12-14.83-5.29-15.91-12.92s3.67-14.26,11.72-16.89c1.65-.54,2.86-2.43,4.28-3.69l-.8-1.22h9.21l.69,3.5c3.59,1.91,7.44,3.09,10,5.59s3.76,6.26,6,10.27c-5.69.16-9.05.58-13.37-2.71-3.47-2.65-10.51-.8-15.94-.47-.66,0-2,3.48-1.5,4.61a7.51,7.51,0,0,0,4.6,3.71c2.86.62,6,.17,9,.22,8.49.12,14.82,5.27,15.91,12.91s-3.67,14.26-11.72,16.89c-1.65.54-2.86,2.43-4.27,3.7l.8,1.22h-9.21Z"/></g></g></svg>