<svg xmlns="http://www.w3.org/2000/svg" viewBox="0 0 418.71 419.43"><defs><style>.cls-1{fill:#101d49;}.cls-2{fill:#2dbafb;}</style></defs><title>sucess</title><g id="Layer_2" data-name="Layer 2"><g id="Layer_1-2" data-name="Layer 1"><path class="cls-1" d="M209.37,386.43c87.11-.41,161.46-63.95,174.8-150.07,1.4-9,1.49-18.19,2.43-27.26,1.06-10.25,7.88-16.59,16.92-16.11,9.2.49,15.49,7.4,15.18,17.68-2.55,84.84-41.64,148.05-116.88,185.94C217,439.33,121.4,420.84,56.32,351.41,12.69,304.86-6.46,248.57,1.93,185.23,13.48,98,63.06,40,145.37,10A172.15,172.15,0,0,1,208.86.06c9.72.24,16.53,6.31,17,15.29s-5.78,15.52-15.5,16.85c-16.12,2.21-32.88,2.38-48.22,7.12C91.84,61,48,108.37,35.38,180.93c-16.87,96.93,50.13,187.8,147.4,203C191.56,385.32,200.51,385.63,209.37,386.43Z"/><path class="cls-2" d="M194.41,246.83c3.91-3.71,6.15-5.73,8.28-7.86Q290.5,151.36,378.31,63.72a77,77,0,0,1,8.24-7.41c6.52-4.85,13.38-4.38,19,.94a15.48,15.48,0,0,1,2.59,19.68,42.53,42.53,0,0,1-5.57,6.37Q340,145.83,277.34,208.3q-34.92,34.78-70,69.37c-8.8,8.69-17.15,8.56-25.84-.82q-37.94-40.92-75.59-82.11c-7.45-8.14-7.45-17.58-.42-23.74,6.73-5.9,16.47-4.54,23.75,3.35q30.32,32.85,60.58,65.77C191.39,241.87,192.52,244.06,194.41,246.83Z"/></g></g></svg>