<svg xmlns="http://www.w3.org/2000/svg" viewBox="0 0 427.23 420.95"><defs><style>.cls-1{fill:none;stroke:#d1d3d4;stroke-miterlimit:10;stroke-width:4px;opacity:0.44;}.cls-2{opacity:0.29;}.cls-3{fill:#939598;}.cls-4{opacity:0.19;}.cls-5{fill:#223492;}.cls-6{fill:#34bdf6;}.cls-7{fill:#808285;}.cls-8{fill:#d1d3d4;}</style></defs><title>verify</title><g id="Layer_2" data-name="Layer 2"><g id="Layer_1-2" data-name="Layer 1"><path class="cls-1" d="M171.89,44.09a149.4,149.4,0,0,1,219.7,201.75"/><g class="cls-2"><circle class="cls-3" cx="4.41" cy="305.19" r="4.41"/><path class="cls-3" d="M4.41,266.83A4.41,4.41,0,1,1,0,271.24,4.4,4.4,0,0,1,4.41,266.83Z"/><circle class="cls-3" cx="4.41" cy="237.29" r="4.41"/><path class="cls-3" d="M4.41,198.94A4.41,4.41,0,1,1,0,203.35,4.4,4.4,0,0,1,4.41,198.94Z"/><circle class="cls-3" cx="4.41" cy="169.4" r="4.41"/><circle class="cls-3" cx="4.41" cy="135.45" r="4.41"/><path class="cls-3" d="M4.41,97.09A4.42,4.42,0,1,1,0,101.51,4.41,4.41,0,0,1,4.41,97.09Z"/><circle class="cls-3" cx="4.41" cy="67.56" r="4.41"/><path class="cls-3" d="M38.36,300.78A4.41,4.41,0,1,1,34,305.19,4.41,4.41,0,0,1,38.36,300.78Z"/><path class="cls-3" d="M38.36,266.83A4.41,4.41,0,1,1,34,271.24,4.41,4.41,0,0,1,38.36,266.83Z"/><path class="cls-3" d="M38.36,232.88A4.41,4.41,0,1,1,34,237.29,4.42,4.42,0,0,1,38.36,232.88Z"/><path class="cls-3" d="M38.36,198.94A4.41,4.41,0,1,1,34,203.35,4.41,4.41,0,0,1,38.36,198.94Z"/><path class="cls-3" d="M38.36,165A4.41,4.41,0,1,1,34,169.4,4.41,4.41,0,0,1,38.36,165Z"/><path class="cls-3" d="M38.36,131A4.41,4.41,0,1,1,34,135.45,4.42,4.42,0,0,1,38.36,131Z"/><path class="cls-3" d="M38.36,97.09A4.42,4.42,0,1,1,34,101.51,4.42,4.42,0,0,1,38.36,97.09Z"/><path class="cls-3" d="M38.36,63.15A4.41,4.41,0,1,1,34,67.56,4.41,4.41,0,0,1,38.36,63.15Z"/><circle class="cls-3" cx="72.31" cy="305.19" r="4.41" transform="translate(-110.57 50.38) rotate(-22.34)"/><path class="cls-3" d="M72.31,266.83a4.41,4.41,0,1,1-4.42,4.41A4.41,4.41,0,0,1,72.31,266.83Z"/><circle class="cls-3" cx="72.31" cy="237.29" r="4.41" transform="translate(-84.76 45.29) rotate(-22.34)"/><path class="cls-3" d="M72.31,198.94a4.41,4.41,0,1,1-4.42,4.41A4.41,4.41,0,0,1,72.31,198.94Z"/><circle class="cls-3" cx="72.31" cy="169.4" r="4.41" transform="translate(-58.96 40.19) rotate(-22.34)"/><circle class="cls-3" cx="72.31" cy="135.45" r="4.41" transform="translate(-46.06 37.65) rotate(-22.34)"/><path class="cls-3" d="M72.31,97.09a4.42,4.42,0,1,1-4.42,4.42A4.42,4.42,0,0,1,72.31,97.09Z"/><circle class="cls-3" cx="72.31" cy="67.56" r="4.41" transform="translate(-20.25 32.55) rotate(-22.34)"/><path class="cls-3" d="M106.25,300.78a4.41,4.41,0,1,1-4.41,4.41A4.4,4.4,0,0,1,106.25,300.78Z"/><path class="cls-3" d="M106.25,266.83a4.41,4.41,0,1,1-4.41,4.41A4.4,4.4,0,0,1,106.25,266.83Z"/><path class="cls-3" d="M106.25,232.88a4.41,4.41,0,1,1-4.41,4.41A4.41,4.41,0,0,1,106.25,232.88Z"/><path class="cls-3" d="M106.25,198.94a4.41,4.41,0,1,1-4.41,4.41A4.4,4.4,0,0,1,106.25,198.94Z"/><path class="cls-3" d="M106.25,165a4.41,4.41,0,1,1-4.41,4.41A4.4,4.4,0,0,1,106.25,165Z"/><path class="cls-3" d="M106.25,131a4.41,4.41,0,1,1-4.41,4.41A4.41,4.41,0,0,1,106.25,131Z"/><path class="cls-3" d="M106.25,97.09a4.42,4.42,0,1,1-4.41,4.42A4.41,4.41,0,0,1,106.25,97.09Z"/><path class="cls-3" d="M106.25,63.15a4.41,4.41,0,1,1-4.41,4.41A4.4,4.4,0,0,1,106.25,63.15Z"/><circle class="cls-3" cx="140.2" cy="305.19" r="4.41"/><path class="cls-3" d="M140.2,266.83a4.41,4.41,0,1,1-4.41,4.41A4.4,4.4,0,0,1,140.2,266.83Z"/><circle class="cls-3" cx="140.2" cy="237.29" r="4.41"/><path class="cls-3" d="M140.2,198.94a4.41,4.41,0,1,1-4.41,4.41A4.4,4.4,0,0,1,140.2,198.94Z"/><circle class="cls-3" cx="140.2" cy="169.4" r="4.41"/><circle class="cls-3" cx="140.2" cy="135.45" r="4.41"/><path class="cls-3" d="M140.2,97.09a4.42,4.42,0,1,1-4.41,4.42A4.41,4.41,0,0,1,140.2,97.09Z"/><circle class="cls-3" cx="140.2" cy="67.56" r="4.41"/></g><g class="cls-4"><circle class="cls-5" cx="272.03" cy="418.35" r="2.6"/><path class="cls-5" d="M272,395.73a2.6,2.6,0,1,1-2.6,2.6A2.61,2.61,0,0,1,272,395.73Z"/><circle class="cls-5" cx="272.03" cy="378.32" r="2.6"/><path class="cls-5" d="M272,355.71a2.6,2.6,0,1,1-2.6,2.6A2.6,2.6,0,0,1,272,355.71Z"/><circle class="cls-5" cx="272.03" cy="338.29" r="2.6"/><circle class="cls-5" cx="272.03" cy="318.28" r="2.6"/><path class="cls-5" d="M272,295.67a2.6,2.6,0,1,1-2.6,2.6A2.6,2.6,0,0,1,272,295.67Z"/><circle class="cls-5" cx="272.03" cy="278.25" r="2.6"/><path class="cls-5" d="M292,415.75a2.6,2.6,0,1,1-2.6,2.6A2.59,2.59,0,0,1,292,415.75Z"/><path class="cls-5" d="M292,395.73a2.6,2.6,0,1,1-2.6,2.6A2.6,2.6,0,0,1,292,395.73Z"/><path class="cls-5" d="M292,375.72a2.6,2.6,0,1,1-2.6,2.6A2.59,2.59,0,0,1,292,375.72Z"/><path class="cls-5" d="M292,355.71a2.6,2.6,0,1,1-2.6,2.6A2.59,2.59,0,0,1,292,355.71Z"/><path class="cls-5" d="M292,335.69a2.6,2.6,0,1,1-2.6,2.6A2.6,2.6,0,0,1,292,335.69Z"/><path class="cls-5" d="M292,315.68a2.6,2.6,0,1,1-2.6,2.6A2.59,2.59,0,0,1,292,315.68Z"/><path class="cls-5" d="M292,295.67a2.6,2.6,0,1,1-2.6,2.6A2.59,2.59,0,0,1,292,295.67Z"/><path class="cls-5" d="M292,275.65a2.6,2.6,0,1,1-2.6,2.6A2.6,2.6,0,0,1,292,275.65Z"/><circle class="cls-5" cx="312.05" cy="418.35" r="2.6" transform="translate(-135.58 149.99) rotate(-22.34)"/><path class="cls-5" d="M312.05,395.73a2.6,2.6,0,1,1-2.6,2.6A2.61,2.61,0,0,1,312.05,395.73Z"/><circle class="cls-5" cx="312.05" cy="378.32" r="2.6" transform="translate(-120.37 146.99) rotate(-22.34)"/><path class="cls-5" d="M312.05,355.71a2.6,2.6,0,1,1-2.6,2.6A2.6,2.6,0,0,1,312.05,355.71Z"/><circle class="cls-5" cx="312.05" cy="338.29" r="2.6" transform="translate(-105.16 143.99) rotate(-22.34)"/><circle class="cls-5" cx="312.05" cy="318.28" r="2.6" transform="translate(-97.55 142.49) rotate(-22.34)"/><path class="cls-5" d="M312.05,295.67a2.6,2.6,0,1,1-2.6,2.6A2.6,2.6,0,0,1,312.05,295.67Z"/><circle class="cls-5" cx="312.05" cy="278.25" r="2.6" transform="translate(-82.34 139.48) rotate(-22.34)"/><path class="cls-5" d="M332.07,415.75a2.6,2.6,0,1,1-2.6,2.6A2.6,2.6,0,0,1,332.07,415.75Z"/><path class="cls-5" d="M332.07,395.73a2.6,2.6,0,1,1-2.6,2.6A2.61,2.61,0,0,1,332.07,395.73Z"/><path class="cls-5" d="M332.07,375.72a2.6,2.6,0,1,1-2.6,2.6A2.6,2.6,0,0,1,332.07,375.72Z"/><path class="cls-5" d="M332.07,355.71a2.6,2.6,0,1,1-2.6,2.6A2.6,2.6,0,0,1,332.07,355.71Z"/><path class="cls-5" d="M332.07,335.69a2.6,2.6,0,1,1-2.6,2.6A2.61,2.61,0,0,1,332.07,335.69Z"/><path class="cls-5" d="M332.07,315.68a2.6,2.6,0,1,1-2.6,2.6A2.6,2.6,0,0,1,332.07,315.68Z"/><path class="cls-5" d="M332.07,295.67a2.6,2.6,0,1,1-2.6,2.6A2.6,2.6,0,0,1,332.07,295.67Z"/><path class="cls-5" d="M332.07,275.65a2.6,2.6,0,1,1-2.6,2.6A2.61,2.61,0,0,1,332.07,275.65Z"/><circle class="cls-5" cx="352.08" cy="418.35" r="2.6"/><path class="cls-5" d="M352.08,395.73a2.6,2.6,0,1,1-2.6,2.6A2.6,2.6,0,0,1,352.08,395.73Z"/><circle class="cls-5" cx="352.08" cy="378.32" r="2.6"/><path class="cls-5" d="M352.08,355.71a2.6,2.6,0,1,1-2.6,2.6A2.59,2.59,0,0,1,352.08,355.71Z"/><circle class="cls-5" cx="352.08" cy="338.29" r="2.6"/><circle class="cls-5" cx="352.08" cy="318.28" r="2.6"/><path class="cls-5" d="M352.08,295.67a2.6,2.6,0,1,1-2.6,2.6A2.59,2.59,0,0,1,352.08,295.67Z"/><circle class="cls-5" cx="352.08" cy="278.25" r="2.6"/></g><path class="cls-6" d="M262.27,364c-20.87-5.61-42-10.33-62.49-17.19-11-3.68-21.66-3.79-32.68-3.83-18.33-.05-36.66,0-55,0-16.88,0-20.69-3.76-20.69-20.43q0-117.46.08-234.94a1.91,1.91,0,0,0-.13-.45c-5.12.9-8.84,5.21-9.43,11.07-.18,1.82-.1,3.66-.1,5.49V298.19c0,1.5.51,3.29-.13,4.44-1.07,1.91-2.63,4.46-4.41,4.85-3.13.7-4.66-1.81-4.74-4.94,0-1.5,0-3,0-4.5,0-64.65.35-129.3-.21-194C72.14,84.39,85.1,74.67,101,75.76c8.26.57,16.59.1,25.53.1,0-3.82,0-7.1,0-10.38,0-3.87,1.75-5.85,5.75-5.84q46.74,0,93.48,0c4,0,5.71,2.19,5.8,5.92.07,3.15,0,6.3,0,10.3h14c5,0,10,0,15,0,14.76.2,24.8,10.16,25,24.87.11,9.33.17,18.66-.05,28-.08,3.56.86,5.19,4.57,6.15,21.28,5.48,42.47,11.31,63.69,17,10.9,2.92,13.48,7.32,10.63,18.29l-1.66,6.4c2.73.82,5.35,1.65,8,2.4,8.9,2.55,11.86,7.66,9.48,16.54q-8.91,33.28-17.85,66.57-14.16,52.82-28.3,105.63c-2.94,10.94-7.48,13.6-18.28,10.7-11.25-3-22.47-6.19-33.79-9-2-.49-4.56.53-6.78,1.14-4.58,1.26-9.1,3.9-13.65,3.92q-82.74.42-165.47.13c-13.24,0-23.11-9.77-23.52-22.91-.26-8.32-.06-16.66-.08-25,0-3.12.74-5.91,4.45-6,3.92-.07,4.88,2.7,4.87,6.1,0,7.83-.09,15.67,0,23.5.12,8.89,5.76,14.91,14.68,14.93q82,.17,164,0a10,10,0,0,0,1.77-.31C262.28,364.7,262.28,364.36,262.27,364Zm-64.51-151.2H124.84c-1.49,0-3.31.47-4.42-.2-1.76-1.06-4.2-2.88-4.21-4.4s2.38-3.41,4.12-4.49c1.09-.68,2.92-.19,4.42-.19,23.5,0,47-.1,70.48.1,3.86,0,5.6-1.07,6.47-4.83,1.72-7.45,3.89-14.81,5.85-22.21,2.2-8.31,4.38-16.62,6.77-25.7h-6.6q-41.75,0-83.48,0c-7.79,0-8.43-.67-8.45-8.66V131.74c0-8,.93-9,8.84-9q46.74,0,93.47,0c1.82,0,4.15.47,5.38-.44,5.68-4.2,11.31-2.4,17.18-.77,11.51,3.2,23.09,6.16,35,9.33,0-11.87.38-23.18-.18-34.43-.23-4.74-3.75-8.12-8.86-10,0,7.54,0,14.35,0,21.17,0,3.35-1,6.16-5,6.06-3.68-.09-4.54-2.86-4.57-6-.05-5.33-.11-10.67,0-16,.08-4.43-2-6.35-6.36-6.3-9,.1-18,.17-27,0-3.58-.09-4.84.83-5,4.67-.52,11.17-8.66,19.29-19.5,19.5q-20.25.38-40.49,0c-10.65-.19-18.73-8.24-19.63-18.95-.13-1.58-.29-3.17-.48-5.16H109.79c-8.48,0-9,.54-9,9.15V324.55c0,1.16,0,2.33,0,3.49.11,3.64,2,5.53,5.64,5.54,26.16,0,52.32.05,78.48-.11,1.3,0,3.19-1.5,3.76-2.77,1.11-2.48,1.49-5.3,2.24-8.23l-9.13-2.67c-7.37-2.19-10.44-7.4-8.69-14.89.6-2.59,1.43-5.13,2.11-7.71,1.93-7.3,3.83-14.61,5.9-22.48H124.31c-1.5,0-3.33.45-4.41-.24-1.62-1-3.71-2.88-3.73-4.41s2.09-3.34,3.69-4.36c1.09-.69,2.92-.27,4.42-.27,18.32,0,36.65,0,55-.08,1.6,0,4.3-.63,4.62-1.59,2.1-6.37,3.69-12.9,5.62-20H183q-29.25,0-58.49,0c-3.56,0-8.3.9-8.44-4.41-.15-5.76,4.81-4.82,8.52-4.83,21,0,42,0,63-.11,1.67,0,4.44-.9,4.81-2C194.41,226.26,195.86,220,197.76,212.82Zm158.62-48.95c-1.6-.92-3.32-2.42-5.31-3Q294,145.49,236.8,130.27c-6.6-1.77-6.67-1.79-8.42,4.75q-22.71,84.61-45.49,169.21c-1.3,4.8.06,6.31,4.49,7.48q57.44,15.17,114.76,30.76c4.54,1.24,6.33.68,7.61-4.16,13-49.39,26.34-98.71,39.56-148Zm3.88,22.5c-.46,1.52-.88,2.77-1.22,4q-20.31,75.71-40.63,151.39c-2.69,10-7.5,12.68-17.4,10q-38.58-10.33-77.13-20.73c-7.8-2.09-15.63-4.1-23.61-6.19a54.78,54.78,0,0,1-1.77,5.86c-1.93,4.48-.41,6.48,4.23,7.7,38,10,75.9,20.2,113.84,30.32,7.05,1.88,7.07,1.85,9-5.24l44-164.44C372.4,188.3,372.38,188.3,360.26,186.37ZM209,85.51c-19.47,0-38.71-.05-57.95.14-.84,0-2.32,2.1-2.39,3.29-.37,6.58,4.35,11.19,11.72,11.28q18.44.23,36.89,0C206,100.12,210.08,95.22,209,85.51Zm-83.42,56.14h84.2c8.08,0,8.08,0,8.93-9.16-1.63-.08-3.23-.21-4.84-.21-7.48,0-15,0-22.45,0-20.46,0-40.91.07-61.37-.08-3.62,0-5.37.9-4.81,4.72C125.4,138.2,125.41,139.52,125.56,141.65Zm10.5-66.11h85.6V69.35h-85.6Z"/><path class="cls-7" d="M133.32,182c-4,0-7.95,0-11.93,0-3,0-5.36-1.28-5.42-4.54-.06-3.55,2.4-4.83,5.63-4.84q11.93,0,23.87,0c3.22,0,5.69,1.2,5.62,4.8s-2.67,4.6-5.83,4.6Z"/><path class="cls-7" d="M133.35,305.67c-4,0-8,0-11.93,0-3,0-5.31-1.31-5.46-4.52s2.11-4.77,5.13-4.81q12.42-.15,24.84,0c3,0,5.27,1.43,5.19,4.75s-2.29,4.58-5.35,4.6C141.63,305.69,137.49,305.67,133.35,305.67Z"/><path class="cls-5" d="M301.83,256.31C293,261.38,285.48,265.66,278,270c-5.2,3-10.42,5.92-15.56,9-3.74,2.25-6.53,1.68-8.73-2.16-4.54-8-9.17-15.86-13.73-23.81-1.58-2.74-2-5.53,1.17-7.39s5.32-.08,6.91,2.66c4,6.87,8,13.74,12.26,21l23.73-13.65c5.2-3,10.37-6,15.59-9s7.74-2.2,9.69,3.73c5.77,17.6,2.22,33.68-9.07,47.92-17.25,21.77-49.13,24.87-71.12,7.32-21.46-17.14-24.93-48.67-7.78-70.78,16.66-21.49,48.54-25.61,70.27-9.08.53.4,1.05.82,1.57,1.24,2.31,1.88,3.65,4.16,1.65,6.89-2.12,2.88-4.88,2.51-7.43.49a42.86,42.86,0,0,0-21.83-9.09c-22.44-2.78-42.19,13-45.5,36.6-3,21.46,13.07,42.08,35.24,45.19,22.42,3.14,43.4-12.14,46.4-34.14C302.4,268,301.83,262.8,301.83,256.31Z"/><path class="cls-7" d="M324.44,216.2l-20.23-5.45q-34-9.12-68-18.22c-6.28-1.69-7.07-3-5.44-9.2q4-15.21,8.14-30.37c1.62-5.93,3.2-6.85,8.91-5.32q41.73,11.13,83.43,22.33c6.52,1.75,7.31,3.11,5.61,9.56-2.7,10.3-5.32,20.63-8.34,30.84C327.86,212.64,325.69,214.48,324.44,216.2Zm2.9-37.49-79.84-21.4c-2.44,9.11-4.73,17.68-7.12,26.62l79.85,21.35C322.68,196.13,324.94,187.69,327.34,178.71Z"/><circle class="cls-8" cx="391.59" cy="245.84" r="9.05"/><circle class="cls-8" cx="174.46" cy="43.46" r="9.05"/></g></g></svg>