<svg xmlns="http://www.w3.org/2000/svg" viewBox="0 0 94.3 18.86"><defs><style>.cls-1{fill:#313943;}</style></defs><title>2</title><g id="Layer_2" data-name="Layer 2"><g id="Layer_1-2" data-name="Layer 1"><polygon class="cls-1" points="5.77 7.92 9.43 4.26 13.1 7.93 15.23 5.8 9.43 0 3.64 5.79 5.77 7.92"/><rect class="cls-1" x="0.62" y="7.92" width="3.01" height="3.01" transform="translate(-6.04 4.27) rotate(-45)"/><polygon class="cls-1" points="5.77 10.94 9.43 14.6 13.09 10.93 15.23 13.06 15.23 13.06 9.43 18.86 3.64 13.07 3.63 13.06 5.77 10.94"/><rect class="cls-1" x="15.22" y="7.92" width="3.01" height="3.01" transform="translate(-1.77 14.59) rotate(-45)"/><polygon class="cls-1" points="11.59 9.43 11.59 9.43 9.43 7.27 7.83 8.86 7.83 8.86 7.65 9.05 7.27 9.43 7.27 9.43 7.27 9.43 7.27 9.43 9.43 11.59 11.59 9.43 11.59 9.43 11.59 9.43"/><path class="cls-1" d="M22.18,4.57h4.64a3.54,3.54,0,0,1,2.61.89,2.31,2.31,0,0,1,.68,1.7v0a2.5,2.5,0,0,1-.1.76,2.49,2.49,0,0,1-.29.59,2.07,2.07,0,0,1-.41.47,2.76,2.76,0,0,1-.5.34,3.47,3.47,0,0,1,1.36.89,2.31,2.31,0,0,1,.5,1.57v0a2.68,2.68,0,0,1-.26,1.2,2.4,2.4,0,0,1-.76.86,3.63,3.63,0,0,1-1.18.51,6.73,6.73,0,0,1-1.54.17H22.18Zm4.17,4a2.25,2.25,0,0,0,1.16-.25.84.84,0,0,0,.43-.8v0a.88.88,0,0,0-.37-.77A1.9,1.9,0,0,0,26.5,6.5H24.33V8.61Zm.59,4a2.14,2.14,0,0,0,1.14-.26.9.9,0,0,0,.42-.82v0a1,1,0,0,0-.39-.8,2.12,2.12,0,0,0-1.24-.29H24.33v2.2Z"/><path class="cls-1" d="M33.43,4.57h2.2v10h-2.2Z"/><path class="cls-1" d="M39,4.57h2l4.69,6.16V4.57h2.17v10H46L41.13,8.21v6.36H39Z"/><path class="cls-1" d="M54.51,4.5h2l4.29,10.07h-2.3l-.92-2.24H53.38l-.91,2.24H50.22Zm2.32,5.88L55.5,7.14l-1.33,3.24Z"/><path class="cls-1" d="M63.2,4.57h2l4.69,6.16V4.57h2.17v10H70.22L65.37,8.21v6.36H63.2Z"/><path class="cls-1" d="M80,14.74a5.13,5.13,0,0,1-2.05-.4,5,5,0,0,1-1.63-1.09,5.12,5.12,0,0,1-1.07-1.64,5.4,5.4,0,0,1-.38-2v0a5.4,5.4,0,0,1,.38-2,5.35,5.35,0,0,1,1.07-1.64A5,5,0,0,1,78,4.81a5.19,5.19,0,0,1,2.11-.41,7.1,7.1,0,0,1,1.28.11,5,5,0,0,1,1,.32,4.05,4.05,0,0,1,.87.48,5.69,5.69,0,0,1,.75.63l-1.4,1.62a5.19,5.19,0,0,0-1.2-.83,3,3,0,0,0-1.36-.3,2.85,2.85,0,0,0-1.17.24,2.91,2.91,0,0,0-.92.67,3.54,3.54,0,0,0-.6,1,3.46,3.46,0,0,0-.21,1.21v0a3.46,3.46,0,0,0,.21,1.21,3,3,0,0,0,.6,1,2.56,2.56,0,0,0,.91.68,2.71,2.71,0,0,0,1.18.25,3.08,3.08,0,0,0,1.45-.31,5.87,5.87,0,0,0,1.18-.86L84.11,13a9.11,9.11,0,0,1-.8.74,4.45,4.45,0,0,1-.91.56,4.57,4.57,0,0,1-1.08.36A6.57,6.57,0,0,1,80,14.74Z"/><path class="cls-1" d="M86.7,4.57h7.53v2H88.87v2h4.71v1.95H88.87v2.1H94.3v2H86.7Z"/></g></g></svg>