<svg xmlns="http://www.w3.org/2000/svg" viewBox="0 0 94.64 20.67"><defs><style>.cls-1{fill:#262626;}</style></defs><title>4</title><g id="Layer_2" data-name="Layer 2"><g id="Layer_1-2" data-name="Layer 1"><path class="cls-1" d="M91.87,12.47c-.07-2.06-1.09-3.19-3-3.19-1.7,0-3,1.2-3.36,3.19Zm-6.45,1.94v.05a4.07,4.07,0,0,0,4.28,3.67,7.55,7.55,0,0,0,4.46-1.3v2.61a8.44,8.44,0,0,1-4.67,1.23c-4.13,0-6.94-2.64-6.94-6.83s2.75-7,6.4-7c3.87,0,5.69,2.48,5.69,6.11v1.5ZM72.26,16.77Zm4,1.5c1.32,0,2.18-.45,2.18-1.5S77.71,15.3,76,14.85c-2.77-.63-3.93-1.73-3.93-4,0-2.69,2-4,4.74-4a6.83,6.83,0,0,1,3.81,1v2.72A6.09,6.09,0,0,0,76.91,9.2c-1.29,0-2,.63-2,1.5s.56,1.3,2.1,1.73c3,.66,4.34,1.79,4.34,4.18,0,2.79-2.13,4.05-5,4.05a7.83,7.83,0,0,1-4.11-1.08V16.77A7,7,0,0,0,76.31,18.27Zm-9.1-3.73H66c-2.07,0-3.42.61-3.42,2s1.26,1.91,3,1.91a12.24,12.24,0,0,0,1.62-.14V14.55Zm0-3.07c0-1.44-1.09-2.1-2.55-2.1a7.41,7.41,0,0,0-3.82,1.08V7.87a8.74,8.74,0,0,1,4.3-1.07c2.9,0,5,1.2,5,4.52v8.77a19.7,19.7,0,0,1-4.54.53c-3.44,0-5.95-1-5.95-4,0-2.7,2.3-4,6.13-4h1.46v-1.1ZM51,18.12c2.73,0,4.68-1.5,4.68-4.55a3.9,3.9,0,0,0-4.08-4.1,5.43,5.43,0,0,0-2.67.63v7.74A7.2,7.2,0,0,0,51,18.12ZM48.92,0V7.45a7.29,7.29,0,0,1,3-.65c3.83,0,6.71,2.44,6.71,6.7s-2.84,7.16-7.75,7.16A15,15,0,0,1,46,19.79V0ZM31.85,7.93A17.8,17.8,0,0,1,37.93,6.8c3.39,0,5.53,1.28,5.53,5v8.53H40.54V12.1c0-1.92-1.19-2.6-2.84-2.6a10.31,10.31,0,0,0-2.88.38V20.35h-3V7.93ZM25.91,3a1.86,1.86,0,0,1,3.71,0,1.85,1.85,0,1,1-3.7,0ZM26.3,7.1h3V20.35h-3ZM13.73,13.74c0,2.67,1.62,4.39,3.83,4.39s3.87-1.72,3.87-4.39-1.6-4.4-3.87-4.4-3.83,1.71-3.83,4.4Zm10.69,0a6.61,6.61,0,0,1-6.86,6.93,6.61,6.61,0,0,1-6.83-6.93A6.61,6.61,0,0,1,17.56,6.8a6.62,6.62,0,0,1,6.86,6.94Zm-17,4.32a5.47,5.47,0,0,0,2.06-.39s1.32,2.07,1.34,2.07A7.71,7.71,0,0,1,7,20.67a6.59,6.59,0,0,1-7-6.93A6.67,6.67,0,0,1,7,6.8a7.24,7.24,0,0,1,3.57.88L9.29,9.81a5.51,5.51,0,0,0-2-.37A4,4,0,0,0,3,13.74a4.1,4.1,0,0,0,4.37,4.32Z"/></g></g></svg>