<svg xmlns="http://www.w3.org/2000/svg" viewBox="0 0 95.57 23.61"><defs><style>.cls-1{fill:#262626;}</style></defs><title>5</title><g id="Layer_2" data-name="Layer 2"><g id="Layer_1-2" data-name="Layer 1"><path class="cls-1" d="M44.1,10l3.84,6.33h0l0,0,0,0,0,0,0,0s0,0,0,0h0l0,0h.32l0,0h0a.18.18,0,0,0,.07-.05l0,0s0,0,0,0h0L52.51,10v7.83a.43.43,0,0,0,.85,0h0V8.45a.43.43,0,0,0-.79-.21l-4.27,7L44,8.24a.38.38,0,0,0-.48-.19.38.38,0,0,0-.31.4v9.36a.42.42,0,0,0,.12.3.43.43,0,0,0,.31.12.42.42,0,0,0,.3-.12.41.41,0,0,0,.11-.3Zm14.76,5,2.25-5.44L63.37,15Zm-1.63,3.23a.38.38,0,0,0,.39-.26l.89-2.13h5.22L64.62,18a.38.38,0,0,0,.39.26.42.42,0,0,0,.42-.43.37.37,0,0,0,0-.15l-1-2.39h0l-2.89-7a.25.25,0,0,0,0-.07l0,0,0,0,0,0,0,0A.44.44,0,0,0,61.19,8H61a.35.35,0,0,0-.15.07l0,0,0,0,0,0,0,0a.3.3,0,0,0,0,.08l-2.9,7h0l-1,2.38a.38.38,0,0,0,0,.33.42.42,0,0,0,.39.26ZM69.31,18a.4.4,0,0,0,.13-.3V15l1.27-1.34,4.23,4.43a.43.43,0,0,0,.61,0,.43.43,0,0,0,.13-.3.42.42,0,0,0-.12-.3l-4.25-4.47,4.11-4.31a.42.42,0,0,0,.12-.3.39.39,0,0,0-.13-.29.41.41,0,0,0-.59,0h0l-5.36,5.63V8.41A.43.43,0,0,0,69,8a.41.41,0,0,0-.42.41h0v9.32a.37.37,0,0,0,.12.3.37.37,0,0,0,.3.13.36.36,0,0,0,.3-.13Zm15.76.2a.43.43,0,0,0,.4-.45.43.43,0,0,0-.4-.4H79.82V13.54h3.93a.42.42,0,0,0,.42-.43.43.43,0,0,0-.42-.43H79.82V8.84l5.25,0a.43.43,0,0,0,.31-.72h0a.39.39,0,0,0-.3-.12L79.39,8a.39.39,0,0,0-.3.13.43.43,0,0,0-.13.3v9.39a.45.45,0,0,0,.43.43Zm9-6.12a2.18,2.18,0,0,1-1.48.57H89.78V8.86h2.8a2.19,2.19,0,0,1,1.51.56,1.75,1.75,0,0,1,.22,2.48l-.2.21ZM89.35,8a.46.46,0,0,0-.3.11.42.42,0,0,0-.12.3v9.3a.42.42,0,0,0,.12.3.46.46,0,0,0,.6,0,.43.43,0,0,0,.13-.3V13.52h2.39L94.37,18a.39.39,0,0,0,.38.23.42.42,0,0,0,.4-.28.4.4,0,0,0,0-.32l-2-4.14a3,3,0,0,0,1.77-.93,2.6,2.6,0,0,0-.1-3.67l-.06-.06A3,3,0,0,0,92.58,8Z"/><path class="cls-1" d="M1.15,1.73V23a.58.58,0,0,1-.57.58A.58.58,0,0,1,0,23H0V.58A.57.57,0,0,1,.92.12L14.74,10.59A.55.55,0,0,1,15,11V23a.57.57,0,0,1-.57.58.58.58,0,0,1-.58-.58V11.33Z"/><path class="cls-1" d="M19.22,11.33V23a.58.58,0,1,1-1.15,0h0V11a.53.53,0,0,1,.23-.45L32.11.12a.58.58,0,0,1,.81.11A.61.61,0,0,1,33,.58V23a.57.57,0,0,1-.57.58.58.58,0,0,1-.58-.58V1.73Z"/></g></g></svg>