<svg xmlns="http://www.w3.org/2000/svg" viewBox="0 0 350.4 350.34"><defs><style>.cls-1{fill:#34bdf6;}.cls-2{fill:#223492;}</style></defs><title>blockchain</title><g id="Layer_2" data-name="Layer 2"><g id="Layer_1-2" data-name="Layer 1"><path class="cls-1" d="M174.92,143.9a31.27,31.27,0,1,1-31,31.69A31.24,31.24,0,0,1,174.92,143.9Z"/><path class="cls-2" d="M62.45,175.14A31.23,31.23,0,1,1,31,143.91,31.23,31.23,0,0,1,62.45,175.14Z"/><path class="cls-1" d="M350.4,175.2a31.23,31.23,0,1,1-31.29-31.29A31,31,0,0,1,350.4,175.2Z"/><path class="cls-2" d="M175.35,350.34a31.22,31.22,0,1,1,31.11-31.47A31.06,31.06,0,0,1,175.35,350.34Z"/><path class="cls-1" d="M176,0a31.22,31.22,0,1,1-1.83,62.42c-16.87-.39-30.64-14.92-30.2-31.87A31,31,0,0,1,176,0Z"/><path class="cls-2" d="M281.49,87.29A18.29,18.29,0,0,1,263,68.7a18.67,18.67,0,1,1,37.33.32A18.37,18.37,0,0,1,281.49,87.29Z"/><path class="cls-2" d="M281.73,300.11A18.2,18.2,0,0,1,263,281.8a18.67,18.67,0,1,1,18.72,18.31Z"/><path class="cls-2" d="M87.4,68.54A18,18,0,0,1,69,87.08,19.1,19.1,0,0,1,50.05,68.56C49.91,58.48,58.44,50,68.74,50A18.53,18.53,0,0,1,87.4,68.54Z"/><path class="cls-1" d="M68.64,263.13a18.56,18.56,0,0,1,18.58,18.62c0,10.61-7.93,18.41-18.63,18.23a18.25,18.25,0,0,1-18.23-18.84A17.73,17.73,0,0,1,68.64,263.13Z"/><path class="cls-1" d="M202.52,209.83l7.08-7.14,53.17,53.23-7,7.17Z"/><path class="cls-1" d="M131.25,169.38v11.55H75.05V169.38Z"/><path class="cls-1" d="M250.35,64.31,214.46,51.64c1.35-4,2.53-7.46,4-11.77l35.85,12.57Z"/><path class="cls-1" d="M131.85,39.88,136,51.6l-35.8,12.65c-1.47-4.06-2.71-7.46-4.23-11.64Z"/><path class="cls-1" d="M286.09,99.9l11.81-3.82,12.63,35.73L298.73,136Z"/><path class="cls-1" d="M39.84,218.43l11.82-4L64.3,250.2l-11.78,4.11Z"/><path class="cls-1" d="M298.71,214.32l11.8,4.17c-4.19,11.93-8.31,23.63-12.55,35.69l-11.83-3.74C290.3,238.48,294.41,226.66,298.71,214.32Z"/><path class="cls-1" d="M96.08,297.85c1.33-4.07,2.47-7.54,3.86-11.8l36,12.6c-1.38,4.05-2.56,7.52-4,11.8Z"/></g></g></svg>