<svg xmlns="http://www.w3.org/2000/svg" viewBox="0 0 208.9 208.53"><defs><style>.cls-1{fill:#2c60d1;}.cls-2{fill:#2eb9fa;}.cls-3{fill:#2fbafa;}.cls-4{fill:#a8aaac;}.cls-5{fill:#85a2e2;}.cls-6{fill:#3869d4;}.cls-7{fill:#37bcfa;}</style></defs><title>community</title><g id="Layer_2" data-name="Layer 2"><g id="Layer_1-2" data-name="Layer 1"><path class="cls-1" d="M208.9,107.58c-1,.88-.64,2.16-.85,3.23-3,15.11-14,26.3-29.14,29.23a17.91,17.91,0,0,0-9.76,5.05c-5.78,5.87-11.71,11.59-17.46,17.48-1.38,1.4-2.17,1.74-3.67.11-2.93-3.19-3-3.08.16-6.06,5.09-4.78,10.13-9.62,15.26-14.35,1.48-1.36,1.52-2-.52-2.64-8.78-3-16.46-7.56-21.66-15.53-1-1.46-1.73-3-2.58-4.55-.36-1-.77-2-1.06-3-3-10.42-2.81-20.61,2.38-30.39,3.29-6.22,8.58-10.42,14.45-14,6-2.92,12.18-4.83,18.94-4.53A36.17,36.17,0,0,1,193.93,75c1.23.92,1.43,1.68.25,2.69a1.62,1.62,0,0,0-.17.19c-2.28,2.91-2.28,2.91-5.45.9-10.26-6.5-24.22-6.38-33.14.28a16.46,16.46,0,0,0-4.62,3.71c-8.53,8.55-11.42,22-6.88,31.79a20.67,20.67,0,0,0,3.83,7.07c.8-8.84.91-8.93,9.6-11.74,1.88-.61,3.66-1.51,5.72-2.37-3.86-4.21-4.42-9-3.26-14.1,1.68-7.38,8-11.75,14.89-10.33s11.11,8.11,10,15.32a23.68,23.68,0,0,1-2.58,7.76c-.69,1.25-.38,1.64.85,2.08,2.73,1,5.38,2.19,8.11,3.16,4.47,1.58,5,2.25,4.84,7.06,0,.91,0,1.82,0,3a10.55,10.55,0,0,0,3.62-4.67c4.24-8.76,3.09-17.43-.62-26-.59-1.37-1.4-2.64-2-4-.35-.76-1.63-1.46-.88-2.33a19.32,19.32,0,0,1,4-3.36c.65-.41,1,.67,1.38,1.15a36.28,36.28,0,0,1,7.08,16.55c.07.46-.12,1,.53,1.25Zm-36.59,26.87a33.75,33.75,0,0,0,13.43-3.26c3.62-1.79,4.33-3.08,3.78-7.1a5.18,5.18,0,0,1,.3-1.93c.54-2.64-.21-4.39-2.66-5.53-9-4.17-18-5.13-27.44-1.15-3.78,1.59-6,3.29-5,7.61a5.6,5.6,0,0,1-.1,2c-.42,2.68.77,4.47,3.07,5.68A33.33,33.33,0,0,0,172.31,134.45Zm6.14-37.8a9,9,0,0,0-.83-3.86,5.61,5.61,0,0,0-5.23-3.59,5.76,5.76,0,0,0-5.57,3,10.31,10.31,0,0,0,1.79,11.93,4.75,4.75,0,0,0,7.07-.08C177.62,102.19,178.44,99.82,178.45,96.65Z"/><path class="cls-1" d="M73,110.08c-1.5,7.31-4.4,14-9.74,19.3-10.69,10.65-23.57,14-37.82,9.47S3.2,123.71.57,109.08c-.1-.53.17-1.22-.57-1.5v-7c.92-.65.51-1.68.66-2.52A36.42,36.42,0,0,1,31.22,68.17a13.61,13.61,0,0,0,7.81-4c6.11-6.25,12.35-12.38,18.42-18.67,1.34-1.39,2.08-1.23,3.38-.08,3.32,3,3.38,2.92.21,6C55.51,56.63,50,61.91,44.14,67.46c2.75,1.36,5.3,2.64,7.85,3.88,1.87.92,3.75,1.79,5.63,2.7,3.09,1.49,3.09,1.5,1,4-2.25,2.71-2.25,2.71-5.11.86-11.29-7.28-26.31-6.46-36,2-10.39,9-13.83,23.45-8.34,35.31.89,1.92,1.79,3.9,3.83,5.36-.09-.91-.17-1.56-.22-2.21-.29-4.56,1.94-7.57,6.78-8.76a39.63,39.63,0,0,0,8.29-3.21c-5.25-5.66-5-11.87-1.52-18.12,3-5.38,7.93-7.45,13.46-6.1a12.79,12.79,0,0,1,9.69,11.66,20,20,0,0,1-2.69,11.25c-.65,1.21-.47,1.61.77,2.1,2.94,1.17,5.81,2.48,8.83,3.41,3.77,1.16,4.7,2.69,4.26,6.69a5.09,5.09,0,0,0,.25,3.09,17.37,17.37,0,0,0,5.65-10.86c1.35-8.44-1.07-16.12-4.87-23.52-.43-.83-1.62-1.74-.92-2.63a14.46,14.46,0,0,1,3.6-3c.61-.39,1,.73,1.62.92a45.44,45.44,0,0,1,4.72,8.1C73.2,96.74,73.57,103.34,73,110.08Zm-35.42,2a8.34,8.34,0,0,0-1.5,0c-4.93.86-9.54,2.79-14.2,4.49-2.15.78-3,2.75-2.8,5.07a13.08,13.08,0,0,1,.16,3.46,4.62,4.62,0,0,0,2.71,5.34c9.63,5.11,19.38,5.17,29.14.38a6.46,6.46,0,0,0,3.9-5.41c.4-4.55-1.35-7.62-5.42-9.62C45.71,114,41.91,112.1,37.53,112.13ZM30.46,96.71a10.07,10.07,0,0,0,2.11,6.71c2.48,3,5.71,3.06,8.28.16a10.48,10.48,0,0,0,1.44-11,5.88,5.88,0,0,0-3.66-3.12C34.16,88.12,30.58,91.26,30.46,96.71Z"/><path class="cls-2" d="M100.45,208.53c-1-.92-2.34-.66-3.51-.91A36.12,36.12,0,0,1,68.54,178a15.76,15.76,0,0,0-5-9.22c-6.12-5.89-12.07-11.95-18.15-17.88-1.13-1.1-1.4-1.91,0-2.94a6.93,6.93,0,0,0,1.41-1.4c1.09-1.49,2-1.16,3.12,0,5.46,5.61,11,11.14,16.51,16.69.41.41.84.79,1.36,1.28L73.44,153c.14-.3.3-.6.45-.89,2-3.94,4.14-4,6.63-.23.69,1.05-.22,1.55-.57,2.17-3.62,6.51-6,13.34-5.53,20.93A24,24,0,0,0,80,189.07c.26-.38.42-.51.41-.62-.6-5.53.82-8.83,8-10.5a11.47,11.47,0,0,0,1.92-.57c1.46-.6,3.37-.9,4.22-2,1.18-1.54-1.1-2.52-1.72-3.81-3.17-6.52-.47-15.93,5.8-19.55,7.57-4.37,17.62,1.09,18.34,9.94a19.19,19.19,0,0,1-2.48,11.52c-.81,1.38-.51,2,.94,2.5,2.71,1,5.34,2.28,8.14,3.12,4,1.2,5.17,3.12,4.62,7.27-.13.94-.13.94.37,2.5a11.47,11.47,0,0,0,3.78-5.41c8.1-21.43-6.89-41.68-28.21-41.78-6.31,0-12.06,2.12-17.35,5.54-.69.44-1.42,1.53-2.36.54-1.14-1.2-2.43-2.33-3-3.94-.08-.23.72-.82,1.17-1.17,17.34-13.5,43.78-7.68,54.06,11.9,11.91,22.69-1.9,49.65-27.42,53.54a3,3,0,0,0-.82.44ZM86.9,190.09c-.05,6.55.66,7.61,6.28,9.78.93.36,1.87.68,2.83,1a29.67,29.67,0,0,0,22.93-2.46c4.85-2.58,5.29-11.25.77-13.67-9.24-5-18.52-6.88-28.39-1.13C88.2,185.39,86.06,186.85,86.9,190.09Zm11.12-24a8.58,8.58,0,0,0,3.37,6.11c1.35,1.06,2.84,1.69,4.61.92,3.09-1.35,4.38-4,4.78-7.07s0-5.83-2.59-7.9a5,5,0,0,0-2.73-1.09C100.81,156.54,98.06,159.38,98,166.05Z"/><path class="cls-3" d="M138.87,49a77.42,77.42,0,0,1-5.21,9.32c-8.13,11.45-19.57,15.32-33,14.47-10.72-.68-19-5.77-25.46-14.23-3.19-5.1-6-10.34-6.84-16.43C66.94,32.17,69,23.12,75,15c1.11-1.48,1.86-1.67,3.32-.38,2.58,2.28,2.68,2.19.89,5.17a32.75,32.75,0,0,0-4.88,14.25,31,31,0,0,0,4.45,18.37c.28.49.48,1.08,1.18,1.21.83-.53.37-1.35.38-2,0-4.66,1.63-7,6.11-8.52,2.28-.77,4.59-1.4,6.84-2.3,1.87-.76,1.93-1.3.72-2.89-5.38-7.09-1.69-19.41,6.54-22.14,8.54-2.84,17.11,4.23,16.56,13.48-.22,3.79-1.8,7-3.21,10.37,3.11,2.15,6.72,3.09,10.2,4.35s4.64,3.12,4.11,6.66c-.15,1-.54,1.92.27,2.79a13.13,13.13,0,0,0,4.59-7.5c6-15.72-4.79-35-21.62-38.8A30.46,30.46,0,0,0,87,11.82c-3.19,2.15-3.56-.88-4.82-2.06-1.79-1.69.48-2.25,1.27-2.9,10.32-8.48,27.13-9.14,39.68-1.75,9.83,5.79,15.42,14.41,17.26,25.56a14.11,14.11,0,0,0,4.13,8c6.23,6.13,12.37,12.35,18.64,18.44,1.36,1.32,1.44,2-.18,3.14-3.41,2.42-3.31,2.49-6.17-.5q-7.06-7.39-14.22-14.72a3.36,3.36,0,0,0-1.94-1.4Q139.76,46.31,138.87,49Zm-35.05,17.7a30.9,30.9,0,0,0,14.83-3.48c3-1.56,4.64-4.26,4.17-7-.64-3.8-1.76-7.31-6.19-8.43-1.35-.34-2.62-1-3.95-1.52a24.56,24.56,0,0,0-22.42,2.64c-3.33,2.13-3.67,5.25-3.43,8.73a6.91,6.91,0,0,0,4.61,6.24A31.21,31.21,0,0,0,103.82,66.68ZM110.92,29a27.21,27.21,0,0,0-.53-2.75A6.12,6.12,0,0,0,98.55,26a10,10,0,0,0,1.65,9.66c2.57,3.26,5.68,3.28,8.38.15A10.57,10.57,0,0,0,110.92,29Z"/><path class="cls-4" d="M67,8.2a6.53,6.53,0,0,1-6.53,6.72,6.6,6.6,0,0,1-6.56-6.71A6.55,6.55,0,1,1,67,8.2Z"/><path class="cls-5" d="M96.37,87a9.22,9.22,0,0,1,2.71.27c3.55,1.51,6.88,1.27,10.55,0,4.53-1.59,8.53.15,11.49,3.83a12.37,12.37,0,0,1,2,13.07,12.88,12.88,0,0,1-2.88,4.33c-4.67,4.61-9.64,8.89-14.55,13.24-.95.83-1.51.88-2.47,0-4.7-4.33-9.6-8.45-14.19-12.89-5.92-5.72-5.69-13.72.24-19.37A9.14,9.14,0,0,1,96.37,87Zm21.52,12.41c-.07-2.58-1.89-5.32-4-6.07-2.65-.93-4.64.31-6.45,2.11-1,1-1.5,2.88-2.84,2.94-1.55.07-2-1.94-3.08-3-3-3-5.93-3.21-8.47-.64s-2.62,6.27.23,9.33c3.17,3.41,6.85,6.28,10.3,9.39.87.79,1.43.45,2.1-.16A135.57,135.57,0,0,0,116,103.65,6.65,6.65,0,0,0,117.89,99.39Z"/><path class="cls-1" d="M174.9,121.21c.76,2.53-.51,2.9-2.8,3s-2.82-.69-2.85-2.9.51-3.13,3-3.07C174.56,118.23,175.52,118.81,174.9,121.21Z"/><path class="cls-6" d="M33.94,120.3c-.76-2.54.51-2.9,2.78-3,2.46-.06,3.14.55,3.2,3.11.06,2.77-1,3-3.29,3C34.09,123.55,33.37,122.63,33.94,120.3Z"/><path class="cls-7" d="M104.42,190.94c-2.42.67-3-.32-3.08-2.71-.07-2.57.71-3.13,3.17-3.13s3,.75,3,3.09S106.91,191.65,104.42,190.94Z"/><path class="cls-7" d="M104.91,50.66c2.26-.68,2.71.67,2.59,2.93-.16,2.93-.13,2.9-4.15,3-2.71.06-1.77-1.83-1.81-3.08C101.44,50.66,101.51,50.66,104.91,50.66Z"/></g></g></svg>