<svg xmlns="http://www.w3.org/2000/svg" viewBox="0 0 363.93 354.39"><defs><style>.cls-1{fill:#223492;}.cls-2{fill:#34bdf6;}</style></defs><title>qrb</title><g id="Layer_2" data-name="Layer 2"><g id="Layer_1-2" data-name="Layer 1"><path class="cls-1" d="M57.9,161.74h0c2.08,8.32,6.31,14.74,11,21l.18.23c.18.24.37.47.55.69s.37.43.56.63l.21.22a13.21,13.21,0,0,0,4,2.91l.36.17.29.1a14.4,14.4,0,0,0,2.71.76l.5.08.63.08a4.07,4.07,0,0,0,.49.05,21,21,0,0,0,2.13.1l29.54-.1H116q42.37-.13,84.74-.09l8.12,0,10.1,0,13.06.08,6.4,0q10.32.08,20.64.21c11.82.14,18.61-4.24,23.61-13.69,1.75-3.28,3.32-6.71,4.85-10.1a15,15,0,0,0,.66-3.47H57.9Z"/><path class="cls-1" d="M283.2,147.69h0c-1.57-.87-2.08-1.17-2.59-1.42l-11.87-5.91L240,126.05l-23.61-11.78-2-1-17-8.47-12.06-6c-1.08-.52-2.15-1.05-3.22-1.59l-2.86-1.43-1.76-.88c-3.32-1.64-6.13-1.31-9.34.29Q125.6,116.56,82.9,137.7l-20,10H283.2Z"/><path class="cls-2" d="M32.84,173C32.84,95.7,95.7,32.84,173,32.84a139.49,139.49,0,0,1,94.71,37L294.51,50A172.49,172.49,0,0,0,173,0C77.6,0,0,77.6,0,173a171.83,171.83,0,0,0,19.85,80.37l26.78-19.81A139.2,139.2,0,0,1,32.84,173Z"/><path class="cls-2" d="M359,290.18,324.77,256A172.75,172.75,0,0,0,314.51,73.59L288.13,93.15A139.88,139.88,0,0,1,270.5,273.57a121.91,121.91,0,0,1-9.23,8.25v-77.4H220.81V304.77a137.7,137.7,0,0,1-27.69,7V204.31H153.2v107.5a140,140,0,0,1-27.73-6.94V204.42H85.16v77.72a139.57,139.57,0,0,1-22.11-22.29L36.7,279.37a173.61,173.61,0,0,0,61.63,49.69,172.79,172.79,0,0,0,149,.15,167.47,167.47,0,0,0,18.06-10.07l31.67,30.17a18.23,18.23,0,1,0,25.18-26.37l-28-26.71q5.78-5.67,11-11.88L335,314.12a16.93,16.93,0,0,0,24-23.94Z"/></g></g></svg>