<svg xmlns="http://www.w3.org/2000/svg" viewBox="0 0 12.06 12.06"><defs><style>.cls-1{fill:#878787;}</style></defs><title>discord</title><g id="Layer_2" data-name="Layer 2"><g id="Layer_1-2" data-name="Layer 1"><path class="cls-1" d="M5.91,0h.25A6,6,0,0,1,11.1,2.72a6.22,6.22,0,0,1,1,3v.61A6.25,6.25,0,0,1,11,9.56a6.1,6.1,0,0,1-5,2.5A5.93,5.93,0,0,1,1.07,9.49,6,6,0,0,1,0,6.05V6A6,6,0,0,1,5.91,0ZM2.54,7.62c0,.48.5.85,1.5,1.12l.33,0c.26-.16.39-.33.39-.5a2.52,2.52,0,0,1-.82-.54v0H4a4.72,4.72,0,0,0,1.73.53h1A7.19,7.19,0,0,0,8.45,7.7v0a1.87,1.87,0,0,1-.93.54v0c.22.32.39.47.5.47A2.54,2.54,0,0,0,9.7,8a.26.26,0,0,1,.07-.14V7.27A8.6,8.6,0,0,0,9,4.41a2.52,2.52,0,0,0-1.83-.76l0,.07a3.82,3.82,0,0,1,1.21.61v0A5.47,5.47,0,0,0,6.55,3.9H5.8a6.64,6.64,0,0,0-1.93.47C3.93,4.23,4.3,4,5,3.8c0,0,.08-.06.22-.08v-.1a3.28,3.28,0,0,0-1.72.64A8.37,8.37,0,0,0,2.54,7.62ZM5,5.91H5c.33,0,.53.22.61.68s-.26.68-.61.68h-.1q-.48,0-.57-.75C4.51,6.11,4.71,5.91,5,5.91Zm2.3,0h0c.33,0,.53.22.61.68v0c-.07.43-.27.65-.61.65h0c-.41,0-.61-.24-.61-.72S6.93,5.91,7.27,5.91Z"/></g></g></svg>