<svg xmlns="http://www.w3.org/2000/svg" viewBox="0 0 12.09 12.09"><defs><style>.cls-1{fill:#878787;}</style></defs><title>facebook</title><g id="Layer_2" data-name="Layer 2"><g id="Layer_1-2" data-name="Layer 1"><path class="cls-1" d="M5.87,0h.36a6.09,6.09,0,0,1,4.22,1.89A6.17,6.17,0,0,1,12,5a6.76,6.76,0,0,1,.1.82v.5a6.22,6.22,0,0,1-.82,2.8,6.26,6.26,0,0,1-3.4,2.72,7.58,7.58,0,0,1-1.75.28H6a6.17,6.17,0,0,1-4.3-1.86A6.27,6.27,0,0,1,0,5.9V5.83a.23.23,0,0,1,0-.14,0,0,0,0,0,0,0A6.69,6.69,0,0,1,.93,2.82,6.11,6.11,0,0,1,4.37.25,5.32,5.32,0,0,1,5.87,0ZM5,3.86,5.08,5S5,5,5,5.08h-.6V6.33H5s.07,0,.11.11V9.52l0,.21H6.37V6.4c0-.05,0-.07.07-.07h1a4.53,4.53,0,0,0,.18-1.18V5.08H6.44c-.05,0-.07,0-.07-.07V4.15c0-.37.21-.57.64-.61h.72V2.47c0-.07-.25-.11-.75-.11H6.8a1.54,1.54,0,0,0-1.61.93A3.72,3.72,0,0,0,5,3.86Z"/></g></g></svg>