<svg xmlns="http://www.w3.org/2000/svg" viewBox="0 0 12.09 12.05"><defs><style>.cls-1{fill:#878787;}</style></defs><title>insta</title><g id="Layer_2" data-name="Layer 2"><g id="Layer_1-2" data-name="Layer 1"><path class="cls-1" d="M5.61,0h.86A6,6,0,0,1,9.62,1.14a6.17,6.17,0,0,1,1.93,2.4,5.88,5.88,0,0,1,.54,2.18v.5a6.21,6.21,0,0,1-1.65,4A6.18,6.18,0,0,1,6,12.05,6,6,0,0,1,.86,9.12,6.53,6.53,0,0,1,0,6,6.23,6.23,0,0,1,2.07,1.46,6.09,6.09,0,0,1,5.61,0ZM2.82,5.22V7.08a2.1,2.1,0,0,0,1,2,8.24,8.24,0,0,0,2.79.18q1.8,0,2.07-.39a2,2,0,0,0,.61-1.62V4.9A1.8,1.8,0,0,0,8.26,3l-.44-.15-.45,0H4.76A1.83,1.83,0,0,0,2.89,4.22,7,7,0,0,0,2.82,5.22Zm2-1.79H7.37c.9,0,1.35.48,1.35,1.43V7.4c-.12.88-.49,1.32-1.1,1.32h-1c-.48,0-1,0-1.54,0-.89,0-1.42-.29-1.57-.86A10.05,10.05,0,0,1,3.4,6.47V5.68c0-1.19.09-1.78.29-1.78A1.27,1.27,0,0,1,4.86,3.43ZM4.4,6.12a1.64,1.64,0,0,0,1.32,1.6h.72A1.67,1.67,0,0,0,7.72,6.08V6A1.66,1.66,0,0,0,6.08,4.44h0A1.55,1.55,0,0,0,4.51,5.58,1.46,1.46,0,0,0,4.4,6.12ZM6.05,5h0a1,1,0,0,1,1,.83.62.62,0,0,1,0,.25C7,6.82,6.68,7.19,6.08,7.19a1.09,1.09,0,0,1-1-.72A.88.88,0,0,1,5,6.12C5.05,5.38,5.41,5,6.05,5ZM7.4,4.4c.11.24.24.36.4.36s.29-.12.39-.36S8,4,7.76,4A.43.43,0,0,0,7.4,4.4Z"/></g></g></svg>