<svg xmlns="http://www.w3.org/2000/svg" viewBox="0 0 11.83 12.84"><defs><style>.cls-1{fill:#878787;}</style></defs><title>qb</title><g id="Layer_2" data-name="Layer 2"><g id="Layer_1-2" data-name="Layer 1"><path class="cls-1" d="M2.78,10.79a.52.52,0,0,1-.26-.1,5.87,5.87,0,0,1-.74-9A6,6,0,0,1,5.26,0,.59.59,0,0,1,5.9.52a.6.6,0,0,1-.52.64,4.73,4.73,0,0,0-2.2,8.58.58.58,0,0,1,.15.81A.6.6,0,0,1,2.78,10.79Z"/><path class="cls-1" d="M11.43,11.87,9.92,10.21A5.9,5.9,0,0,0,7.05.08a.57.57,0,0,0-.68.46.58.58,0,0,0,.46.68,4.74,4.74,0,0,1-1.49,9.35,5.06,5.06,0,0,1-1.07-.26.57.57,0,0,0-.74.34.58.58,0,0,0,.34.75,6.78,6.78,0,0,0,1.33.32A5.89,5.89,0,0,0,9,10.9l1.58,1.74a.61.61,0,0,0,.36.19.61.61,0,0,0,.47-.14A.59.59,0,0,0,11.43,11.87Z"/></g></g></svg>