<svg xmlns="http://www.w3.org/2000/svg" viewBox="0 0 12.05 12.05"><defs><style>.cls-1{fill:#878787;}</style></defs><title>twitter</title><g id="Layer_2" data-name="Layer 2"><g id="Layer_1-2" data-name="Layer 1"><path class="cls-1" d="M5.92,0h.25a6.06,6.06,0,0,1,3.89,1.54,6,6,0,0,1,2,4.24v.57a6.36,6.36,0,0,1-1,3,6.32,6.32,0,0,1-3.35,2.43,7.25,7.25,0,0,1-1.65.24H6A6.07,6.07,0,0,1,0,6,6.19,6.19,0,0,1,1.86,1.68,6.12,6.12,0,0,1,5.92,0Zm.36,5v.29s0,.07-.07.07a3.84,3.84,0,0,1-1.93-.79L3.79,4.1h0a.74.74,0,0,1-.14.29v.43a1.58,1.58,0,0,0,.5.82v0a1,1,0,0,1-.5-.14v0a1.4,1.4,0,0,0,.89,1.17l-.07,0H4.25l-.18,0v.07a1.19,1.19,0,0,0,1,.75v.11a2.62,2.62,0,0,1-1.39.43H3.5v.07a4.26,4.26,0,0,0,1.74.46A3.39,3.39,0,0,0,7.88,7.38a3.59,3.59,0,0,0,.79-2.07V5.07a3.64,3.64,0,0,0,.57-.61v0a2.9,2.9,0,0,1-.57.19l0-.08A1.27,1.27,0,0,0,9.13,4V4h0a2.45,2.45,0,0,1-.63.25H8.35a1.4,1.4,0,0,0-.72-.35H7.35a1.07,1.07,0,0,0-1,.67A.89.89,0,0,0,6.28,5Z"/></g></g></svg>