<svg xmlns="http://www.w3.org/2000/svg" viewBox="0 0 180.46 180.46"><defs><style>.cls-1{fill:#878787;}</style></defs><title>www</title><g id="Layer_2" data-name="Layer 2"><g id="Layer_1-2" data-name="Layer 1"><path class="cls-1" d="M154,26.43q26.43,26.61,26.43,64,0,37-26.61,63.53T90.23,180.46q-37.1,0-63.3-26.52T0,90.41q0-37,26.57-63.71T90.23,0Q127.51,0,154,26.43ZM90.32,6.56q-34.17,0-59,24.79T6.56,90.41q.74,34.19,25.16,58.83t58.6,24.66q34.28,0,58.92-24.66T173.9,90.41q0-34.53-24.34-59.06Q124.87,6.57,90.32,6.56Zm0,28.53A53.7,53.7,0,0,0,69,39.37a55.57,55.57,0,0,0-29.39,29.4,55.37,55.37,0,0,0,0,42.74A55.5,55.5,0,0,0,69,140.9a55.37,55.37,0,0,0,42.74,0,55.57,55.57,0,0,0,29.4-29.39,55.49,55.49,0,0,0,0-42.74,55.63,55.63,0,0,0-29.4-29.4A53.66,53.66,0,0,0,90.32,35.09ZM48.85,67H66a68.25,68.25,0,0,0-3.1,11.12H44.48A46,46,0,0,1,48.85,67Zm0,46.3a46,46,0,0,1-4.37-11.12H62.89A75.7,75.7,0,0,0,66,113.29Zm24.34-31L67.9,98.07l-3.19,1.37L61.43,88.68,58.24,99.44,55,98.07,49.85,82.3l3.29-1.46,3.64,12.22,2.83-7.84h3.64l2.83,7.84,3.83-12.22ZM56.78,56.6A46.18,46.18,0,0,1,81,43.57,61.7,61.7,0,0,0,67.9,62.34H51.77A44.58,44.58,0,0,1,56.78,56.6Zm0,67.08a38.66,38.66,0,0,1-5-5.93h16a62.39,62.39,0,0,0,13.21,19A46.18,46.18,0,0,1,56.78,123.68ZM67.72,78.11A63,63,0,0,1,70.91,67H88V78.11ZM88,113.29h-17a63,63,0,0,1-3.19-11.12H88Zm0,23.42a59.85,59.85,0,0,1-15-19H88Zm0-93.14V62.34H73.1A58.06,58.06,0,0,1,88,43.57Zm2.37,45.11L87,99.44l-3.19-1.37L78.56,82.3l3.28-1.46,3.83,12.22,2.83-7.84h3.64L95,93.06l3.64-12.22L102,82.3l-5.2,15.77-3.28,1.37Zm2.37-45.3a60,60,0,0,1,15,19h-15Zm0,23.61h17a54.69,54.69,0,0,1,3.38,11.12H92.69Zm20.42,35.18a54.69,54.69,0,0,1-3.38,11.12h-17V102.17ZM92.69,136.89V117.75h15A60,60,0,0,1,92.69,136.89ZM123.86,56.6a43.82,43.82,0,0,1,5,5.74h-16A63.07,63.07,0,0,0,99.62,43.57,46.18,46.18,0,0,1,123.86,56.6Zm0,67.08a46.18,46.18,0,0,1-24.24,13,62.39,62.39,0,0,0,13.21-19h16A38.11,38.11,0,0,1,123.86,123.68ZM112.74,98.07,107.46,82.3l3.28-1.46,3.82,12.22,2.83-7.84H121l2.82,7.84,3.65-12.22,3.28,1.46-5.11,15.77-3.28,1.37-3.19-10.76-3.28,10.76Zm19-31.08a46.47,46.47,0,0,1,4.38,11.12H117.75a62.47,62.47,0,0,0-3-11.12Zm0,46.3h-17a68.47,68.47,0,0,0,3-11.12h18.42A46.47,46.47,0,0,1,131.79,113.29Z"/></g></g></svg>